<?xml version="1.0" encoding="UTF-8" standalone="no"?>
<svg
   xmlns:dc="http://purl.org/dc/elements/1.1/"
   xmlns:cc="http://creativecommons.org/ns#"
   xmlns:rdf="http://www.w3.org/1999/02/22-rdf-syntax-ns#"
   xmlns:svg="http://www.w3.org/2000/svg"
   xmlns="http://www.w3.org/2000/svg"
   xmlns:sodipodi="http://sodipodi.sourceforge.net/DTD/sodipodi-0.dtd"
   xmlns:inkscape="http://www.inkscape.org/namespaces/inkscape"
   version="1.1"
   viewBox="0 0 1121 328"
   stroke-miterlimit="10"
   id="svg253"
   sodipodi:docname="Workflow de produto (1).svg"
   inkscape:version="0.92.1 r"
   width="1121"
   height="328"
   style="fill:none;stroke:none;stroke-linecap:square;stroke-miterlimit:10">
  <metadata
     id="metadata259">
    <rdf:RDF>
      <cc:Work
         rdf:about="">
        <dc:format>image/svg+xml</dc:format>
        <dc:type
           rdf:resource="http://purl.org/dc/dcmitype/StillImage" />
        <dc:title></dc:title>
      </cc:Work>
    </rdf:RDF>
  </metadata>
  <defs
     id="defs257" />
  <sodipodi:namedview
     pagecolor="#ffffff"
     bordercolor="#666666"
     borderopacity="1"
     objecttolerance="10"
     gridtolerance="10"
     guidetolerance="10"
     inkscape:pageopacity="0"
     inkscape:pageshadow="2"
     inkscape:window-width="1920"
     inkscape:window-height="1020"
     id="namedview255"
     showgrid="false"
     inkscape:zoom="0.51698185"
     inkscape:cx="318.61214"
     inkscape:cy="67.646831"
     inkscape:window-x="0"
     inkscape:window-y="28"
     inkscape:window-maximized="1"
     inkscape:current-layer="svg253" />
  <clipPath
     id="p.0">
    <path
       d="M 0,0 H 1575.6588 V 1036.2992 H 0 Z"
       id="path2"
       inkscape:connector-curvature="0"
       style="clip-rule:nonzero" />
  </clipPath>
  <g
     id="g4968"
     inkscape:label="everything"
     transform="translate(-223,-656.99998)">
    <g
       inkscape:label="background"
       id="g4902">
      <path
         inkscape:label="fill"
         style="fill:#fff2cc;fill-rule:evenodd"
         inkscape:connector-curvature="0"
         id="path157"
         d="m 224,712.6362 v 0 c 0,-29.97473 24.29932,-54.27405 54.27405,-54.27405 H 1288.2141 c 14.3944,0 28.1992,5.71814 38.3776,15.89655 10.1783,10.17834 15.8965,23.98315 15.8965,38.3775 v 217.08972 c 0,29.97473 -24.2994,54.27405 -54.2741,54.27405 H 278.27405 C 248.29932,983.99997 224,959.70065 224,929.72592 Z" />
      <path
         inkscape:label="border"
         style="fill-rule:evenodd;stroke:#000000;stroke-width:2;stroke-linecap:butt;stroke-linejoin:round"
         inkscape:connector-curvature="0"
         id="path159"
         d="m 224,712.6362 v 0 c 0,-29.97473 24.29932,-54.27405 54.27405,-54.27405 H 1288.2141 c 14.3944,0 28.1992,5.71814 38.3776,15.89655 10.1783,10.17834 15.8965,23.98315 15.8965,38.3775 v 217.08972 c 0,29.97473 -24.2994,54.27405 -54.2741,54.27405 H 278.27405 C 248.29932,983.99997 224,959.70065 224,929.72592 Z" />
      <path
         inkscape:label="title"
         style="fill:#000000;fill-rule:nonzero"
         inkscape:connector-curvature="0"
         id="path161"
         d="m 294.157,728.80725 q -4.9375,1.01562 -8.875,1.01562 -3.9375,0 -6.35938,-1.07812 -2.42187,-1.09375 -3.75,-3.35938 -1.3125,-2.28125 -1.82812,-5.23437 -0.5,-2.95313 -0.5,-7.35938 0,-4.42187 0.5,-7.42187 0.51562,-3 1.82812,-5.29688 1.32813,-2.3125 3.71875,-3.375 2.40625,-1.0625 6.23438,-1.0625 3.84375,0 9.03125,1.0625 l -0.14063,3.125 q -4.84375,-0.875 -8.64062,-0.875 -5.28125,0 -6.98438,3.15625 -1.70312,3.14063 -1.70312,10.71875 0,3.79688 0.3125,6.10938 0.3125,2.29687 1.21875,4.14062 0.92187,1.84375 2.67187,2.64063 1.75,0.79687 5.125,0.79687 3.39063,0 8,-0.875 z m 5.42456,0.53125 v -24 h 3.60938 v 24 z m 0,-29.42188 v -4.17187 h 3.60938 v 4.17187 z m 19.4964,4.9375 q 1.57812,0 5.375,0.57813 l 1.14062,0.14062 -0.14062,2.9375 q -3.84375,-0.4375 -5.65625,-0.4375 -4.07813,0 -5.54688,1.95313 -1.46875,1.9375 -1.46875,7.20312 0,5.25 1.35938,7.3125 1.375,2.0625 5.70312,2.0625 l 5.65625,-0.4375 0.15625,2.98438 q -4.46875,0.67187 -6.67187,0.67187 -5.625,0 -7.76563,-2.875 -2.125,-2.89062 -2.125,-9.71875 0,-6.84375 2.29688,-9.60937 2.3125,-2.76563 7.6875,-2.76563 z m 12.24054,24.48438 v -34.46875 h 3.59375 v 34.46875 z m 9.74426,-12.04688 q 0,-6.57812 2.34375,-9.5 2.35938,-2.9375 7.9375,-2.9375 5.59375,0 7.92188,2.9375 2.32812,2.92188 2.32812,9.5 0,6.57813 -2.20312,9.5625 -2.20313,2.96875 -8.0625,2.96875 -5.85938,0 -8.0625,-2.96875 -2.20313,-2.98437 -2.20313,-9.5625 z m 3.6875,-0.0625 q 0,5.25 1.26563,7.35938 1.28125,2.10937 5.32812,2.10937 4.0625,0 5.3125,-2.07812 1.25,-2.09375 1.25,-7.375 0,-5.28125 -1.39062,-7.26563 -1.39063,-2 -5.17188,-2 -3.76562,0 -5.1875,2 -1.40625,1.98438 -1.40625,7.25 z m 51.70096,-22.35937 v 34.46875 h -3.54687 v -1.625 q -3.70313,2.10937 -7.29688,2.10937 -1.92187,0 -3.375,-0.48437 -1.4375,-0.48438 -2.6875,-1.73438 -2.57812,-2.57812 -2.57812,-9.5625 0,-6.98437 2.32812,-10.07812 2.32813,-3.10938 7.70313,-3.10938 2.78125,0 5.90625,0.625 V 694.86975 Z M 382.34185,725.026 q 0.76562,0.90625 1.625,1.25 0.85937,0.32812 2.23437,0.32812 1.375,0 3.07813,-0.45312 1.70312,-0.45313 2.65625,-0.89063 l 0.96875,-0.4375 v -16.26562 q -3.07813,-0.57813 -5.71875,-0.57813 -3.65625,0 -5.09375,2.32813 -1.4375,2.32812 -1.4375,7.21875 0,5.57812 1.6875,7.5 z m 37.39206,1.34375 1.39062,-0.15625 0.0937,2.84375 q -5.46875,0.76562 -9.35937,0.76562 -5.1875,0 -7.34375,-3 -2.15625,-3 -2.15625,-9.34375 0,-12.625 10.03125,-12.625 4.84375,0 7.23437,2.71875 2.40625,2.70313 2.40625,8.51563 l -0.1875,2.73437 h -15.84375 q 0,3.98438 1.4375,5.90625 1.4375,1.92188 5.01563,1.92188 3.57812,0 7.28125,-0.28125 z m -1.29688,-10.42188 q 0,-4.42187 -1.42187,-6.23437 -1.42188,-1.82813 -4.60938,-1.82813 -3.1875,0 -4.79687,1.92188 -1.60938,1.92187 -1.65625,6.14062 z m 17.51883,-10.60937 h 3.84375 l 5.60938,20.875 h 1.78125 l 5.79687,-20.875 h 3.70313 l -6.76563,24 h -7.20312 z m 25.33805,24 v -24 h 3.60937 v 24 z m 0,-29.42188 v -4.17187 h 3.60937 v 4.17187 z m 28.94952,-5.04687 v 34.46875 h -3.54688 v -1.625 q -3.70312,2.10937 -7.29687,2.10937 -1.92188,0 -3.375,-0.48437 -1.4375,-0.48438 -2.6875,-1.73438 -2.57813,-2.57812 -2.57813,-9.5625 0,-6.98437 2.32813,-10.07812 2.32812,-3.10938 7.70312,-3.10938 2.78125,0 5.90625,0.625 V 694.86975 Z M 476.13405,725.026 q 0.76563,0.90625 1.625,1.25 0.85938,0.32812 2.23438,0.32812 1.375,0 3.07812,-0.45312 1.70313,-0.45313 2.65625,-0.89063 l 0.96875,-0.4375 v -16.26562 q -3.07812,-0.57813 -5.71875,-0.57813 -3.65625,0 -5.09375,2.32813 -1.4375,2.32812 -1.4375,7.21875 0,5.57812 1.6875,7.5 z m 38.017,-12.4375 v 12.28125 q 0.14063,1.78125 2.78125,2.10937 l -0.14062,2.84375 q -3.79688,0 -5.71872,-1.92187 -4.3125,1.92187 -8.64063,1.92187 -3.3125,0 -5.04687,-1.875 -1.71875,-1.875 -1.71875,-5.375 0,-3.5 1.76562,-5.15625 1.78125,-1.65625 5.57813,-2.04687 l 7.53125,-0.71875 v -2.0625 q 0,-2.45313 -1.0625,-3.5 -1.04688,-1.0625 -2.875,-1.0625 -3.82813,0 -7.96875,0.48437 l -1.48438,0.14063 -0.14062,-2.73438 q 5.28125,-1.0625 9.35937,-1.0625 4.07813,0 5.92185,1.875 1.85937,1.875 1.85937,5.85938 z m -14.79684,9.79687 q 0,4.40625 3.65625,4.40625 3.26562,0 6.4375,-1.09375 l 1.09375,-0.39062 v -7.92188 l -7.09375,0.67188 q -2.17188,0.1875 -3.14063,1.25 -0.95312,1.0625 -0.95312,3.07812 z m 50.88931,-27.51562 v 34.46875 h -3.54687 v -1.625 q -3.70313,2.10937 -7.29688,2.10937 -1.92187,0 -3.375,-0.48437 -1.4375,-0.48438 -2.6875,-1.73438 -2.57812,-2.57812 -2.57812,-9.5625 0,-6.98437 2.32812,-10.07812 2.32813,-3.10938 7.70313,-3.10938 2.78125,0 5.90625,0.625 V 694.86975 Z M 536.13415,725.026 q 0.76562,0.90625 1.625,1.25 0.85937,0.32812 2.23437,0.32812 1.375,0 3.07813,-0.45312 1.70312,-0.45313 2.65625,-0.89063 l 0.96875,-0.4375 v -16.26562 q -3.07813,-0.57813 -5.71875,-0.57813 -3.65625,0 -5.09375,2.32813 -1.4375,2.32812 -1.4375,7.21875 0,5.57812 1.6875,7.5 z m 38.01703,-12.4375 v 12.28125 q 0.14062,1.78125 2.78125,2.10937 l -0.14063,2.84375 q -3.79687,0 -5.71875,-1.92187 -4.3125,1.92187 -8.64062,1.92187 -3.3125,0 -5.04688,-1.875 -1.71875,-1.875 -1.71875,-5.375 0,-3.5 1.76563,-5.15625 1.78125,-1.65625 5.57812,-2.04687 l 7.53125,-0.71875 v -2.0625 q 0,-2.45313 -1.0625,-3.5 -1.04687,-1.0625 -2.875,-1.0625 -3.82812,0 -7.96875,0.48437 l -1.48437,0.14063 -0.14063,-2.73438 q 5.28125,-1.0625 9.35938,-1.0625 4.07812,0 5.92187,1.875 1.85938,1.875 1.85938,5.85938 z m -14.79688,9.79687 q 0,4.40625 3.65625,4.40625 3.26563,0 6.4375,-1.09375 l 1.09375,-0.39062 v -7.92188 l -7.09375,0.67188 q -2.17187,0.1875 -3.14062,1.25 -0.95313,1.0625 -0.95313,3.07812 z m 29.42304,-14.3125 q -5.21875,0 -5.21875,3.65625 0,1.67188 1.1875,2.375 1.20312,0.6875 5.46875,1.4375 4.28125,0.73438 6.04687,2.07813 1.78125,1.34375 1.78125,5.04687 0,3.70313 -2.375,5.4375 -2.375,1.71875 -6.9375,1.71875 -2.96875,0 -7,-0.67187 l -1.4375,-0.25 0.1875,-3.10938 q 5.46875,0.8125 8.25,0.8125 2.79688,0 4.25,-0.89062 1.46875,-0.89063 1.46875,-2.96875 0,-2.09375 -1.25,-2.82813 -1.25,-0.75 -5.46875,-1.42187 -4.21875,-0.67188 -6,-1.96875 -1.78125,-1.29688 -1.78125,-4.79688 0,-3.51562 2.46875,-5.1875 2.48438,-1.6875 6.17188,-1.6875 2.9375,0 7.34375,0.67188 l 1.34375,0.25 -0.0937,3.0625 q -5.32813,-0.76563 -8.40625,-0.76563 z m 28.95819,21.26563 h -3.60938 v -24 h 3.5625 v 1.6875 q 3.59375,-2.17188 7,-2.17188 4.46875,0 6.23438,2.45313 1.59375,-0.95313 4.10937,-1.70313 2.51563,-0.75 4.4375,-0.75 4.79688,0 6.45313,2.57813 1.65625,2.5625 1.65625,9.23437 v 12.67188 h -3.59375 v -12.57813 q 0,-4.98437 -0.96875,-6.82812 -0.95313,-1.85938 -4.07813,-1.85938 -1.57812,0 -3.26562,0.45313 -1.67188,0.45312 -2.57813,0.89062 l -0.92187,0.4375 q 0.625,1.57813 0.625,7 v 12.48438 h -3.59375 v -12.39063 q 0,-5.17187 -0.9375,-7.01562 -0.9375,-1.85938 -4.10938,-1.85938 -1.53125,0 -3.14062,0.45313 -1.60938,0.45312 -2.46875,0.89062 l -0.8125,0.4375 z m 36.51874,0 v -24 h 3.60937 v 24 z m 0,-29.42188 v -4.17187 h 3.60937 v 4.17187 z m 10.80889,29.42188 v -34.46875 h 3.59375 v 34.46875 z m 27.11927,-2.96875 1.39062,-0.15625 0.0937,2.84375 q -5.46875,0.76562 -9.35937,0.76562 -5.1875,0 -7.34375,-3 -2.15625,-3 -2.15625,-9.34375 0,-12.625 10.03125,-12.625 4.84375,0 7.23437,2.71875 2.40625,2.70313 2.40625,8.51563 l -0.1875,2.73437 H 678.448 q 0,3.98438 1.4375,5.90625 1.4375,1.92188 5.01563,1.92188 3.57812,0 7.28125,-0.28125 z m -1.29688,-10.42188 q 0,-4.42187 -1.42187,-6.23437 -1.42188,-1.82813 -4.60938,-1.82813 -3.1875,0 -4.79687,1.92188 -1.60938,1.92187 -1.65625,6.14062 z m 16.74005,-7.875 q -5.21875,0 -5.21875,3.65625 0,1.67188 1.1875,2.375 1.20313,0.6875 5.46875,1.4375 4.28125,0.73438 6.04688,2.07813 1.78125,1.34375 1.78125,5.04687 0,3.70313 -2.375,5.4375 -2.375,1.71875 -6.9375,1.71875 -2.96875,0 -7,-0.67187 l -1.4375,-0.25 0.1875,-3.10938 q 5.46875,0.8125 8.25,0.8125 2.79687,0 4.25,-0.89062 1.46875,-0.89063 1.46875,-2.96875 0,-2.09375 -1.25,-2.82813 -1.25,-0.75 -5.46875,-1.42187 -4.21875,-0.67188 -6,-1.96875 -1.78125,-1.29688 -1.78125,-4.79688 0,-3.51562 2.46875,-5.1875 2.48437,-1.6875 6.17187,-1.6875 2.9375,0 7.34375,0.67188 l 1.34375,0.25 -0.0937,3.0625 q -5.32812,-0.76563 -8.40625,-0.76563 z m 27.22632,0.39063 h -7.64062 v 11.46875 q 0,4.125 0.59375,5.42187 0.60937,1.29688 2.875,1.29688 l 4.26562,-0.28125 0.23438,2.96875 q -3.20313,0.53125 -4.89063,0.53125 -3.75,0 -5.1875,-1.82813 -1.4375,-1.82812 -1.4375,-6.95312 v -12.625 h -3.40625 v -3.125 h 3.40625 v -7.34375 h 3.54688 v 7.34375 h 7.64062 z m 3.36365,8.82812 q 0,-6.57812 2.34375,-9.5 2.35937,-2.9375 7.9375,-2.9375 5.59375,0 7.92187,2.9375 2.32813,2.92188 2.32813,9.5 0,6.57813 -2.20313,9.5625 -2.20312,2.96875 -8.0625,2.96875 -5.85937,0 -8.0625,-2.96875 -2.20312,-2.98437 -2.20312,-9.5625 z m 3.6875,-0.0625 q 0,5.25 1.26562,7.35938 1.28125,2.10937 5.32813,2.10937 4.0625,0 5.3125,-2.07812 1.25,-2.09375 1.25,-7.375 0,-5.28125 -1.39063,-7.26563 -1.39062,-2 -5.17187,-2 -3.76563,0 -5.1875,2 -1.40625,1.98438 -1.40625,7.25 z m 26.3128,12.10938 h -3.60937 v -24 h 3.5625 v 1.6875 q 3.875,-2.17188 7.4375,-2.17188 4.79687,0 6.45312,2.59375 1.65625,2.59375 1.65625,9.21875 V 729.3385 H 780.169 v -12.57813 q 0,-4.98437 -0.98438,-6.82812 -0.98437,-1.85938 -4.20312,-1.85938 -1.54688,0 -3.25,0.45313 -1.70313,0.45312 -2.60938,0.89062 l -0.90625,0.4375 z m 38.49482,-2.96875 1.39062,-0.15625 0.0937,2.84375 q -5.46875,0.76562 -9.35937,0.76562 -5.1875,0 -7.34375,-3 -2.15625,-3 -2.15625,-9.34375 0,-12.625 10.03125,-12.625 4.84375,0 7.23437,2.71875 2.40625,2.70313 2.40625,8.51563 l -0.1875,2.73437 h -15.84375 q 0,3.98438 1.4375,5.90625 1.4375,1.92188 5.01563,1.92188 3.57812,0 7.28125,-0.28125 z m -1.29688,-10.42188 q 0,-4.42187 -1.42187,-6.23437 -1.42188,-1.82813 -4.60938,-1.82813 -3.1875,0 -4.79687,1.92188 -1.60938,1.92187 -1.65625,6.14062 z m 16.74005,-7.875 q -5.21875,0 -5.21875,3.65625 0,1.67188 1.1875,2.375 1.20313,0.6875 5.46875,1.4375 4.28125,0.73438 6.04688,2.07813 1.78125,1.34375 1.78125,5.04687 0,3.70313 -2.375,5.4375 -2.375,1.71875 -6.9375,1.71875 -2.96875,0 -7,-0.67187 l -1.4375,-0.25 0.1875,-3.10938 q 5.46875,0.8125 8.25,0.8125 2.79687,0 4.25,-0.89062 1.46875,-0.89063 1.46875,-2.96875 0,-2.09375 -1.25,-2.82813 -1.25,-0.75 -5.46875,-1.42187 -4.21875,-0.67188 -6,-1.96875 -1.78125,-1.29688 -1.78125,-4.79688 0,-3.51562 2.46875,-5.1875 2.48437,-1.6875 6.17187,-1.6875 2.9375,0 7.34375,0.67188 l 1.34375,0.25 -0.0937,3.0625 q -5.32812,-0.76563 -8.40625,-0.76563 z" />
    </g>
    <g
       inkscape:label="step1"
       id="g4867">
      <path
         inkscape:label="fill"
         style="fill:#9fc5e8;fill-rule:evenodd"
         inkscape:connector-curvature="0"
         id="path163"
         d="m 287.937,865.75354 v 0 C 287.937,859.26221 293.19924,854 299.69051,854 h 104.55597 c 3.11722,0 6.10678,1.23834 8.31097,3.4425 2.20423,2.20423 3.44254,5.19379 3.44254,8.31104 v 47.01263 c 0,6.49128 -5.26224,11.75354 -11.75351,11.75354 H 299.69051 c -6.49127,0 -11.75351,-5.26226 -11.75351,-11.75354 z" />
      <path
         inkscape:label="border"
         style="fill-rule:evenodd;stroke:#000000;stroke-width:2;stroke-linecap:butt;stroke-linejoin:round"
         inkscape:connector-curvature="0"
         id="path165"
         d="m 287.937,865.75354 v 0 C 287.937,859.26221 293.19924,854 299.69051,854 h 104.55597 c 3.11722,0 6.10678,1.23834 8.31097,3.4425 2.20423,2.20423 3.44254,5.19379 3.44254,8.31104 v 47.01263 c 0,6.49128 -5.26224,11.75354 -11.75351,11.75354 H 299.69051 c -6.49127,0 -11.75351,-5.26226 -11.75351,-11.75354 z" />
      <path
         inkscape:label="title"
         style="fill:#000000;fill-rule:nonzero"
         inkscape:connector-curvature="0"
         id="path167"
         d="m 324.86105,893.4299 q 0.65625,1.10937 2.48437,1.10937 1.82813,0 2.45313,-1.09375 0.64062,-1.10937 0.64062,-3.70312 0,-2.59375 -0.65625,-3.76563 -0.65625,-1.17187 -2.4375,-1.17187 -1.78125,0 -2.45312,1.17187 -0.67188,1.17188 -0.67188,3.75 0,2.57813 0.64063,3.70313 z m 6.59375,1.35937 q -1.17188,1.59375 -4.125,1.59375 -2.9375,0 -4.10938,-1.59375 -1.17187,-1.60937 -1.17187,-5.04687 0,-3.4375 1.1875,-5.10938 1.1875,-1.67187 4.10937,-1.67187 2.92188,0 4.09375,1.65625 1.1875,1.65625 1.1875,5.125 0,3.45312 -1.17187,5.04687 z m 2.4104,-8.10937 h 2.03125 l 1.5,7.73437 h 0.375 l 1.8125,-7.54687 h 2.125 l 1.8125,7.54687 h 0.375 l 1.48438,-7.73437 h 2.04687 l -2.01562,9.5 h -3.28125 l -1.48438,-6.51563 -1.48437,6.51563 h -3.28125 z m 17.1405,9.5 h -2.07812 v -9.5 h 2.0625 v 0.59375 q 1.375,-0.79688 2.60937,-0.79688 1.90625,0 2.59375,1.07813 0.70313,1.0625 0.70313,3.53125 v 5.09375 h -2.0625 v -5.03125 q 0,-1.54688 -0.32813,-2.1875 -0.32812,-0.64063 -1.35937,-0.64063 -0.96875,0 -1.85938,0.375 l -0.28125,0.10938 z m 14.87381,-1.70313 0.53125,-0.0625 0.0469,1.53125 q -2.17188,0.4375 -3.84375,0.4375 -2.10938,0 -3.03125,-1.15625 -0.92188,-1.15625 -0.92188,-3.70312 0,-5.04688 4.125,-5.04688 3.98438,0 3.98438,4.34375 l -0.125,1.48438 h -5.89063 q 0.0156,1.17187 0.5,1.73437 0.5,0.54688 1.84375,0.54688 1.35938,0 2.78125,-0.10938 z m -1.14062,-3.76562 q 0,-1.40625 -0.45313,-1.96875 -0.4375,-0.5625 -1.5,-0.5625 -1.0625,0 -1.54687,0.59375 -0.48438,0.57812 -0.5,1.9375 z m 3.85235,5.46875 v -9.5 h 2.0625 v 1.14062 q 1.60938,-1.04687 3.21875,-1.34375 v 2.0625 q -1.625,0.32813 -2.78125,0.84375 l -0.42187,0.17188 v 6.625 z m 13.32868,-7.54688 q -2.23438,-0.29687 -3.25,-0.29687 -1,0 -1.39063,0.23437 -0.39062,0.23438 -0.39062,0.75 0,0.51563 0.42187,0.73438 0.4375,0.20312 2.01563,0.48437 1.59375,0.26563 2.25,0.85938 0.67187,0.57812 0.67187,2.07812 0,1.5 -0.96875,2.20313 -0.95312,0.70312 -2.79687,0.70312 -1.15625,0 -2.92188,-0.3125 l -0.59375,-0.0937 0.0781,-1.73437 q 2.28125,0.29687 3.28125,0.29687 1.01562,0 1.4375,-0.23437 0.4375,-0.25 0.4375,-0.8125 0,-0.57813 -0.42188,-0.79688 -0.40625,-0.21875 -1.95312,-0.46875 -1.54688,-0.26562 -2.26563,-0.8125 -0.71875,-0.54687 -0.71875,-2.01562 0,-1.46875 0.98438,-2.1875 1,-0.71875 2.5625,-0.71875 1.21875,0 2.98437,0.29687 l 0.59375,0.125 z" />
    </g>
    <g
       inkscape:label="step3"
       id="g4877">
      <path
         inkscape:label="fill"
         style="fill:#a2c4c9;fill-rule:evenodd"
         inkscape:connector-curvature="0"
         id="path169"
         d="m 822.1218,867.05536 v 0 C 822.1218,860.94965 827.07145,856 833.1771,856 h 155.18066 c 2.93207,0 5.74408,1.16473 7.81732,3.23804 2.0733,2.0733 3.23804,4.88525 3.23804,7.81732 v 44.22003 c 0,6.10565 -4.94965,11.0553 -11.05536,11.0553 H 833.1771 v 0 c -6.10565,0 -11.0553,-4.94965 -11.0553,-11.0553 z" />
      <path
         inkscape:label="border"
         style="fill-rule:evenodd;stroke:#000000;stroke-width:2;stroke-linecap:butt;stroke-linejoin:round"
         inkscape:connector-curvature="0"
         id="path171"
         d="m 822.1218,867.05536 v 0 C 822.1218,860.94965 827.07145,856 833.1771,856 h 155.18066 c 2.93207,0 5.74408,1.16473 7.81732,3.23804 2.0733,2.0733 3.23804,4.88525 3.23804,7.81732 v 44.22003 c 0,6.10565 -4.94965,11.0553 -11.05536,11.0553 H 833.1771 v 0 c -6.10565,0 -11.0553,-4.94965 -11.0553,-11.0553 z" />
      <path
         inkscape:label="title"
         style="fill:#000000;fill-rule:nonzero"
         inkscape:connector-curvature="0"
         id="path173"
         d="m 847.91064,883.0697 h 2.21875 l 1.875,11.1875 h 0.39062 l 2.46875,-11.15625 h 2.46875 l 2.46875,11.15625 h 0.42188 l 1.85937,-11.1875 h 2.23438 l -2.57813,13.01562 h -3.39062 l -2.25,-10.4375 -2.21875,10.4375 h -3.42188 z m 24.55835,11.3125 0.53125,-0.0625 0.0469,1.53125 q -2.17187,0.4375 -3.84375,0.4375 -2.10937,0 -3.03125,-1.15625 -0.92187,-1.15625 -0.92187,-3.70313 0,-5.04687 4.125,-5.04687 3.98437,0 3.98437,4.34375 l -0.125,1.48437 h -5.89062 q 0.0156,1.17188 0.5,1.73438 0.5,0.54687 1.84375,0.54687 1.35937,0 2.78125,-0.10937 z m -1.14063,-3.76563 q 0,-1.40625 -0.45312,-1.96875 -0.4375,-0.5625 -1.5,-0.5625 -1.0625,0 -1.54688,0.59375 -0.48437,0.57813 -0.5,1.9375 z m 10.61799,3.76563 0.53125,-0.0625 0.0469,1.53125 q -2.17187,0.4375 -3.84375,0.4375 -2.10937,0 -3.03125,-1.15625 -0.92187,-1.15625 -0.92187,-3.70313 0,-5.04687 4.125,-5.04687 3.98437,0 3.98437,4.34375 l -0.125,1.48437 h -5.89062 q 0.0156,1.17188 0.5,1.73438 0.5,0.54687 1.84375,0.54687 1.35937,0 2.78125,-0.10937 z m -1.14063,-3.76563 q 0,-1.40625 -0.45312,-1.96875 -0.4375,-0.5625 -1.5,-0.5625 -1.0625,0 -1.54688,0.59375 -0.48437,0.57813 -0.5,1.9375 z m 5.93048,5.46875 h -2.07812 V 882.6322 h 2.07812 v 7.76562 l 1.17188,-0.10937 2.25,-3.70313 h 2.3125 l -2.73438,4.45313 2.89063,5.04687 h -2.34375 l -2.3125,-4.01562 -1.23438,0.14062 z m 11.33576,0 v -9.5 h 2.07812 v 9.5 z m 0,-11.10937 v -2.1875 h 2.07812 v 2.1875 z m 6.57428,11.10937 h -2.07813 v -9.5 h 2.0625 v 0.59375 q 1.375,-0.79687 2.60938,-0.79687 1.90625,0 2.59375,1.07812 0.70312,1.0625 0.70312,3.53125 v 5.09375 h -2.0625 v -5.03125 q 0,-1.54687 -0.32812,-2.1875 -0.32813,-0.64062 -1.35938,-0.64062 -0.96875,0 -1.85937,0.375 l -0.28125,0.10937 z m 14.57189,-4.64062 v 4.64062 h -2.10937 V 883.0697 h 4.9375 q 4.40625,0 4.40625,4.14062 0,2.78125 -2.125,3.76563 l 2.15625,5.10937 h -2.32813 l -1.875,-4.64062 z m 5.07813,-4.21875 q 0,-2.32813 -2.25,-2.32813 h -2.82813 v 4.73438 h 2.875 q 1.14063,0 1.67188,-0.65625 0.53125,-0.65625 0.53125,-1.75 z m 10.85773,7.15625 0.53125,-0.0625 0.0469,1.53125 q -2.17187,0.4375 -3.84375,0.4375 -2.10937,0 -3.03125,-1.15625 -0.92187,-1.15625 -0.92187,-3.70313 0,-5.04687 4.125,-5.04687 3.98437,0 3.98437,4.34375 l -0.125,1.48437 h -5.89062 q 0.0156,1.17188 0.5,1.73438 0.5,0.54687 1.84375,0.54687 1.35937,0 2.78125,-0.10937 z m -1.14063,-3.76563 q 0,-1.40625 -0.45312,-1.96875 -0.4375,-0.5625 -1.5,-0.5625 -1.0625,0 -1.54688,0.59375 -0.48437,0.57813 -0.5,1.9375 z m 2.96173,-4.03125 h 2.17188 l 1.8125,7.73438 h 0.60937 l 1.90625,-7.73438 h 2.10938 l -2.46875,9.5 h -3.6875 z m 10.05084,9.5 v -9.5 h 2.07813 v 9.5 z m 0,-11.10937 v -2.1875 h 2.07813 v 2.1875 z m 11.26178,9.40625 0.53125,-0.0625 0.0469,1.53125 q -2.17188,0.4375 -3.84375,0.4375 -2.10938,0 -3.03125,-1.15625 -0.92188,-1.15625 -0.92188,-3.70313 0,-5.04687 4.125,-5.04687 3.98438,0 3.98438,4.34375 l -0.125,1.48437 h -5.89063 q 0.0156,1.17188 0.5,1.73438 0.5,0.54687 1.84375,0.54687 1.35938,0 2.78125,-0.10937 z m -1.14062,-3.76563 q 0,-1.40625 -0.45313,-1.96875 -0.4375,-0.5625 -1.5,-0.5625 -1.0625,0 -1.54687,0.59375 -0.48438,0.57813 -0.5,1.9375 z m 3.11798,-4.03125 h 2.03125 l 1.5,7.73438 h 0.375 l 1.8125,-7.54688 h 2.125 l 1.8125,7.54688 h 0.375 l 1.48438,-7.73438 h 2.04687 l -2.01562,9.5 h -3.28125 l -1.48438,-6.51562 -1.48437,6.51562 h -3.28125 z" />
    </g>
    <g
       inkscape:label="step4"
       id="g4882">
      <path
         inkscape:label="fill"
         style="fill:#b6d7a8;fill-rule:evenodd"
         inkscape:connector-curvature="0"
         id="path175"
         d="m 1123.4158,867.05536 v 0 c 0,-6.10571 4.9497,-11.05536 11.0553,-11.05536 h 140.8815 c 2.9321,0 5.744,1.16473 7.8174,3.23804 2.0732,2.0733 3.238,4.88525 3.238,7.81732 v 44.22003 c 0,6.10565 -4.9497,11.0553 -11.0554,11.0553 h -140.8815 v 0 c -6.1056,0 -11.0553,-4.94965 -11.0553,-11.0553 z" />
      <path
         inkscape:label="border"
         style="fill-rule:evenodd;stroke:#000000;stroke-width:2;stroke-linecap:butt;stroke-linejoin:round"
         inkscape:connector-curvature="0"
         id="path177"
         d="m 1123.4158,867.05536 v 0 c 0,-6.10571 4.9497,-11.05536 11.0553,-11.05536 h 140.8815 c 2.9321,0 5.744,1.16473 7.8174,3.23804 2.0732,2.0733 3.238,4.88525 3.238,7.81732 v 44.22003 c 0,6.10565 -4.9497,11.0553 -11.0554,11.0553 h -140.8815 v 0 c -6.1056,0 -11.0553,-4.94965 -11.0553,-11.0553 z" />
      <path
         inkscape:label="title"
         style="fill:#000000;fill-rule:nonzero"
         inkscape:connector-curvature="0"
         id="path179"
         d="m 1161.9652,893.3353 q 0.6563,1.10937 2.4844,1.10937 1.8281,0 2.4531,-1.09375 0.6406,-1.10937 0.6406,-3.70312 0,-2.59375 -0.6562,-3.76563 -0.6563,-1.17187 -2.4375,-1.17187 -1.7813,0 -2.4531,1.17187 -0.6719,1.17188 -0.6719,3.75 0,2.57813 0.6406,3.70313 z m 6.5938,1.35937 q -1.1719,1.59375 -4.125,1.59375 -2.9375,0 -4.1094,-1.59375 -1.1719,-1.60937 -1.1719,-5.04687 0,-3.4375 1.1875,-5.10938 1.1875,-1.67187 4.1094,-1.67187 2.9219,0 4.0937,1.65625 1.1875,1.65625 1.1875,5.125 0,3.45312 -1.1718,5.04687 z m 3.1447,5.46875 V 886.5853 h 2.0625 v 0.59375 q 1.2969,-0.79688 2.4375,-0.79688 1.8907,0 2.7657,1.15625 0.875,1.14063 0.875,3.84375 0,2.70313 -1,3.8125 -1,1.09375 -3.2657,1.09375 -0.7812,0 -1.7968,-0.17187 v 4.04687 z m 4.1407,-11.9375 q -0.8907,0 -1.7813,0.39063 l -0.2812,0.14062 v 5.59375 q 0.75,0.15625 1.6718,0.15625 1.2813,0 1.7813,-0.73437 0.5,-0.75 0.5,-2.53125 0,-3.01563 -1.8906,-3.01563 z m 12.6434,6.15625 0.5312,-0.0625 0.047,1.53125 q -2.1719,0.4375 -3.8437,0.4375 -2.1094,0 -3.0313,-1.15625 -0.9219,-1.15625 -0.9219,-3.70312 0,-5.04688 4.125,-5.04688 3.9844,0 3.9844,4.34375 l -0.125,1.48438 h -5.8906 q 0.016,1.17187 0.5,1.73437 0.5,0.54688 1.8437,0.54688 1.3594,0 2.7813,-0.10938 z m -1.1406,-3.76562 q 0,-1.40625 -0.4532,-1.96875 -0.4375,-0.5625 -1.5,-0.5625 -1.0625,0 -1.5468,0.59375 -0.4844,0.57812 -0.5,1.9375 z m 5.9305,5.46875 h -2.0781 v -9.5 h 2.0625 v 0.59375 q 1.375,-0.79688 2.6094,-0.79688 1.9062,0 2.5937,1.07813 0.7031,1.0625 0.7031,3.53125 v 5.09375 h -2.0625 v -5.03125 q 0,-1.54688 -0.3281,-2.1875 -0.3281,-0.64063 -1.3594,-0.64063 -0.9687,0 -1.8593,0.375 l -0.2813,0.10938 z m 14.7125,-2.75 q 0.6563,1.10937 2.4844,1.10937 1.8281,0 2.4531,-1.09375 0.6406,-1.10937 0.6406,-3.70312 0,-2.59375 -0.6562,-3.76563 -0.6563,-1.17187 -2.4375,-1.17187 -1.7813,0 -2.4531,1.17187 -0.6719,1.17188 -0.6719,3.75 0,2.57813 0.6406,3.70313 z m 6.5938,1.35937 q -1.1719,1.59375 -4.125,1.59375 -2.9375,0 -4.1094,-1.59375 -1.1719,-1.60937 -1.1719,-5.04687 0,-3.4375 1.1875,-5.10938 1.1875,-1.67187 4.1094,-1.67187 2.9219,0 4.0937,1.65625 1.1875,1.65625 1.1875,5.125 0,3.45312 -1.1718,5.04687 z m 5.6447,-6.34375 v 7.73438 h -2.0625 v -7.73438 h -1.0937 v -1.76562 h 1.0937 v -0.60938 q 0,-2.03125 0.5938,-2.78125 0.5937,-0.76562 2.0937,-0.76562 l 2.0469,0.1875 -0.016,1.6875 q -0.9375,-0.0312 -1.5625,-0.0312 -0.6094,0 -0.8594,0.375 -0.2344,0.35937 -0.2344,1.34375 v 0.59375 h 2.5 v 1.76562 z m 6.4551,0 v 7.73438 h -2.0625 v -7.73438 h -1.0937 v -1.76562 h 1.0937 v -0.60938 q 0,-2.03125 0.5938,-2.78125 0.5937,-0.76562 2.0937,-0.76562 l 2.0469,0.1875 -0.016,1.6875 q -0.9375,-0.0312 -1.5625,-0.0312 -0.6094,0 -0.8594,0.375 -0.2344,0.35937 -0.2344,1.34375 v 0.59375 h 2.5 v 1.76562 z m 3.955,7.73438 v -9.5 h 2.0781 v 9.5 z m 0,-11.10938 v -2.1875 h 2.0781 v 2.1875 z m 8.0587,1.40625 q 1,0 2.375,0.26563 l 0.4687,0.0937 -0.078,1.625 q -1.5,-0.14063 -2.2187,-0.14063 -1.4532,0 -1.9532,0.64063 -0.4843,0.64062 -0.4843,2.4375 0,1.78125 0.4687,2.46875 0.4844,0.67187 1.9844,0.67187 l 2.2187,-0.14062 0.062,1.64062 q -1.9218,0.34375 -2.8906,0.34375 -2.1562,0 -3.0469,-1.15625 -0.875,-1.17187 -0.875,-3.82812 0,-2.67188 0.9219,-3.79688 0.9375,-1.125 3.0469,-1.125 z m 11.4492,8 0.5313,-0.0625 0.047,1.53125 q -2.1718,0.4375 -3.8437,0.4375 -2.1094,0 -3.0313,-1.15625 -0.9218,-1.15625 -0.9218,-3.70312 0,-5.04688 4.125,-5.04688 3.9843,0 3.9843,4.34375 l -0.125,1.48438 h -5.8906 q 0.016,1.17187 0.5,1.73437 0.5,0.54688 1.8438,0.54688 1.3593,0 2.7812,-0.10938 z m -1.1406,-3.76562 q 0,-1.40625 -0.4531,-1.96875 -0.4375,-0.5625 -1.5,-0.5625 -1.0625,0 -1.5469,0.59375 -0.4844,0.57812 -0.5,1.9375 z" />
    </g>
    <g
       inkscape:label="step1-info"
       id="g4862">
      <path
         inkscape:label="line1"
         style="fill:#000000;fill-rule:nonzero"
         inkscape:connector-curvature="0"
         id="path183"
         d="m 257.5021,778.17914 h -2.60938 v 4.1875 q 0,1.15625 0.15625,1.53125 0.17188,0.375 0.875,0.375 l 1.5625,-0.0469 0.0937,1.65625 q -1.26562,0.23438 -1.9375,0.23438 -1.60937,0 -2.21875,-0.73438 -0.59375,-0.73437 -0.59375,-2.79687 v -4.40625 h -1.21875 v -1.76563 h 1.21875 v -2.75 h 2.0625 v 2.75 h 2.60938 z m 1.56955,7.73437 v -9.5 h 2.0625 v 1.14063 q 1.60937,-1.04688 3.21875,-1.34375 v 2.0625 q -1.625,0.32812 -2.78125,0.84375 l -0.42188,0.17187 v 6.625 z m 6.73492,0 v -9.5 h 2.07813 v 9.5 z m 0,-11.10937 v -2.1875 h 2.07813 v 2.1875 z m 11.52741,4.53125 v 4.34375 q 0.0156,0.40625 0.21875,0.60937 0.20312,0.20313 0.625,0.25 l -0.0625,1.57813 q -1.64063,0 -2.53125,-0.70313 -1.51563,0.70313 -3.04688,0.70313 -2.84375,0 -2.84375,-3.01563 0,-1.4375 0.76563,-2.07812 0.78125,-0.65625 2.375,-0.79688 l 2.45312,-0.20312 v -0.6875 q 0,-0.75 -0.34375,-1.04688 -0.32812,-0.3125 -0.96875,-0.3125 -1.21875,0 -3.04687,0.14063 l -0.60938,0.0469 -0.0625,-1.46875 q 2.0625,-0.48437 3.79688,-0.48437 1.75,0 2.51562,0.75 0.76563,0.75 0.76563,2.375 z m -4.25,2.35937 q -1.3125,0.10938 -1.3125,1.42188 0,1.3125 1.15625,1.3125 0.95312,0 2.01562,-0.29688 l 0.34375,-0.125 v -2.51562 z m 8.75558,4.21875 h -2.07812 v -9.5 h 2.0625 v 0.59375 q 1.34375,-0.79687 2.46875,-0.79687 1.64062,0 2.40625,0.92187 1.73437,-0.92187 3.4375,-0.92187 1.71875,0 2.42187,1.0625 0.70313,1.04687 0.70313,3.54687 v 5.09375 h -2.0625 v -5.03125 q 0,-1.54687 -0.3125,-2.1875 -0.3125,-0.64062 -1.29688,-0.64062 -0.85937,0 -1.84375,0.375 l -0.32812,0.125 q 0.15625,0.39062 0.15625,2.4375 v 4.92187 h -2.04688 v -4.89062 q 0,-1.6875 -0.3125,-2.32813 -0.29687,-0.64062 -1.32812,-0.64062 -0.95313,0 -1.76563,0.375 l -0.28125,0.10937 z m 24.42582,-1.70312 0.53125,-0.0625 0.0469,1.53125 q -2.17187,0.4375 -3.84375,0.4375 -2.10937,0 -3.03125,-1.15625 -0.92187,-1.15625 -0.92187,-3.70313 0,-5.04687 4.125,-5.04687 3.98437,0 3.98437,4.34375 l -0.125,1.48437 h -5.89062 q 0.0156,1.17188 0.5,1.73438 0.5,0.54687 1.84375,0.54687 1.35937,0 2.78125,-0.10937 z m -1.14063,-3.76563 q 0,-1.40625 -0.45312,-1.96875 -0.4375,-0.5625 -1.5,-0.5625 -1.0625,0 -1.54688,0.59375 -0.48437,0.57813 -0.5,1.9375 z m 14.98801,-1.10937 v 4.34375 q 0.0156,0.40625 0.21875,0.60937 0.20312,0.20313 0.625,0.25 l -0.0625,1.57813 q -1.64063,0 -2.53125,-0.70313 -1.51563,0.70313 -3.04688,0.70313 -2.84375,0 -2.84375,-3.01563 0,-1.4375 0.76563,-2.07812 0.78125,-0.65625 2.375,-0.79688 l 2.45312,-0.20312 v -0.6875 q 0,-0.75 -0.34375,-1.04688 -0.32812,-0.3125 -0.96875,-0.3125 -1.21875,0 -3.04687,0.14063 l -0.60938,0.0469 -0.0625,-1.46875 q 2.0625,-0.48437 3.79688,-0.48437 1.75,0 2.51562,0.75 0.76563,0.75 0.76563,2.375 z m -4.25,2.35937 q -1.3125,0.10938 -1.3125,1.42188 0,1.3125 1.15625,1.3125 0.95312,0 2.01562,-0.29688 l 0.34375,-0.125 v -2.51562 z m 14.98996,5.51563 q 0,3.10937 -4.51563,3.10937 -2.15625,0 -3.20312,-0.59375 -1.04688,-0.57812 -1.04688,-2.14062 0,-0.70313 0.34375,-1.20313 0.34375,-0.5 1.09375,-1.09375 -0.625,-0.42187 -0.625,-1.39062 0,-0.375 0.51563,-1.23438 l 0.17187,-0.28125 q -1.35937,-0.8125 -1.35937,-2.85937 0,-1.70313 1.01562,-2.5 1.03125,-0.79688 2.78125,-0.79688 0.82813,0 1.65625,0.1875 l 0.28125,0.0625 2.9375,-0.0781 v 1.67187 l -1.57812,-0.0937 q 0.51562,0.65625 0.51562,1.54688 0,1.875 -0.9375,2.59375 -0.9375,0.70312 -2.9375,0.70312 -0.48437,0 -0.82812,-0.0781 -0.26563,0.64062 -0.26563,1 0,0.34375 0.34375,0.48437 0.35938,0.125 1.70313,0.15625 2.26562,0.0156 3.09375,0.60938 0.84375,0.57812 0.84375,2.21875 z m -6.73438,0.1875 q 0,0.65625 0.53125,0.9375 0.53125,0.29687 1.82813,0.29687 2.29687,0 2.29687,-1.3125 0,-0.73437 -0.40625,-0.9375 -0.40625,-0.20312 -1.625,-0.21875 l -1.85937,-0.10937 q -0.42188,0.32812 -0.59375,0.625 -0.17188,0.29687 -0.17188,0.71875 z m 0.15625,-7.875 q 0,0.875 0.40625,1.29687 0.42188,0.40625 1.35938,0.40625 0.9375,0 1.34375,-0.40625 0.40625,-0.42187 0.40625,-1.29687 0,-0.875 -0.42188,-1.28125 -0.42187,-0.40625 -1.34375,-0.40625 -1.75,0 -1.75,1.6875 z m 8.06018,6.39062 v -9.5 h 2.0625 v 1.14063 q 1.60938,-1.04688 3.21875,-1.34375 v 2.0625 q -1.625,0.32812 -2.78125,0.84375 l -0.42187,0.17187 v 6.625 z m 12.50052,-9.5 h 2.04688 v 9.5 h -2.04688 v -0.59375 q -1.39062,0.79688 -2.5625,0.79688 -1.96875,0 -2.64062,-1.04688 -0.65625,-1.0625 -0.65625,-3.70312 v -4.95313 h 2.07812 v 4.98438 q 0,1.70312 0.28125,2.29687 0.28125,0.57813 1.32813,0.57813 1.03125,0 1.875,-0.375 l 0.29687,-0.10938 z m 4.36472,13.57813 v -13.57813 h 2.0625 v 0.59375 q 1.29687,-0.79687 2.4375,-0.79687 1.89062,0 2.76562,1.15625 0.875,1.14062 0.875,3.84375 0,2.70312 -1,3.8125 -1,1.09375 -3.26562,1.09375 -0.78125,0 -1.79688,-0.17188 v 4.04688 z m 4.14062,-11.9375 q -0.89062,0 -1.78125,0.39062 l -0.28125,0.14063 v 5.59375 q 0.75,0.15625 1.67188,0.15625 1.28125,0 1.78125,-0.73438 0.5,-0.75 0.5,-2.53125 0,-3.01562 -1.89063,-3.01562 z m 12.90903,1.28125 v 4.34375 q 0.0156,0.40625 0.21875,0.60937 0.20313,0.20313 0.625,0.25 l -0.0625,1.57813 q -1.64062,0 -2.53125,-0.70313 -1.51562,0.70313 -3.04687,0.70313 -2.84375,0 -2.84375,-3.01563 0,-1.4375 0.76562,-2.07812 0.78125,-0.65625 2.375,-0.79688 l 2.45313,-0.20312 v -0.6875 q 0,-0.75 -0.34375,-1.04688 -0.32813,-0.3125 -0.96875,-0.3125 -1.21875,0 -3.04688,0.14063 l -0.60937,0.0469 -0.0625,-1.46875 q 2.0625,-0.48437 3.79687,-0.48437 1.75,0 2.51563,0.75 0.76562,0.75 0.76562,2.375 z m -4.25,2.35937 q -1.3125,0.10938 -1.3125,1.42188 0,1.3125 1.15625,1.3125 0.95313,0 2.01563,-0.29688 l 0.34375,-0.125 v -2.51562 z m 8.75562,4.21875 h -2.07813 v -9.5 h 2.0625 v 0.59375 q 1.34375,-0.79687 2.46875,-0.79687 1.64063,0 2.40625,0.92187 1.73438,-0.92187 3.4375,-0.92187 1.71875,0 2.42188,1.0625 0.70312,1.04687 0.70312,3.54687 v 5.09375 h -2.0625 v -5.03125 q 0,-1.54687 -0.3125,-2.1875 -0.3125,-0.64062 -1.29687,-0.64062 -0.85938,0 -1.84375,0.375 l -0.32813,0.125 q 0.15625,0.39062 0.15625,2.4375 v 4.92187 h -2.04687 v -4.89062 q 0,-1.6875 -0.3125,-2.32813 -0.29688,-0.64062 -1.32813,-0.64062 -0.95312,0 -1.76562,0.375 l -0.28125,0.10937 z m 17.66018,0 v -9.5 h 2.07813 v 9.5 z m 0,-11.10937 v -2.1875 h 2.07813 v 2.1875 z m 11.08991,3.5625 q -2.23438,-0.29688 -3.25,-0.29688 -1,0 -1.39063,0.23438 -0.39062,0.23437 -0.39062,0.75 0,0.51562 0.42187,0.73437 0.4375,0.20313 2.01563,0.48438 1.59375,0.26562 2.25,0.85937 0.67187,0.57813 0.67187,2.07813 0,1.5 -0.96875,2.20312 -0.95312,0.70313 -2.79687,0.70313 -1.15625,0 -2.92188,-0.3125 l -0.59375,-0.0937 0.0781,-1.73438 q 2.28125,0.29688 3.28125,0.29688 1.01562,0 1.4375,-0.23438 0.4375,-0.25 0.4375,-0.8125 0,-0.57812 -0.42188,-0.79687 -0.40625,-0.21875 -1.95312,-0.46875 -1.54688,-0.26563 -2.26563,-0.8125 -0.71875,-0.54688 -0.71875,-2.01563 0,-1.46875 0.98438,-2.1875 1,-0.71875 2.5625,-0.71875 1.21875,0 2.98437,0.29688 l 0.59375,0.125 z m 8.74978,0 q -2.23437,-0.29688 -3.25,-0.29688 -1,0 -1.39062,0.23438 -0.39063,0.23437 -0.39063,0.75 0,0.51562 0.42188,0.73437 0.4375,0.20313 2.01562,0.48438 1.59375,0.26562 2.25,0.85937 0.67188,0.57813 0.67188,2.07813 0,1.5 -0.96875,2.20312 -0.95313,0.70313 -2.79688,0.70313 -1.15625,0 -2.92187,-0.3125 l -0.59375,-0.0937 0.0781,-1.73438 q 2.28125,0.29688 3.28125,0.29688 1.01563,0 1.4375,-0.23438 0.4375,-0.25 0.4375,-0.8125 0,-0.57812 -0.42187,-0.79687 -0.40625,-0.21875 -1.95313,-0.46875 -1.54687,-0.26563 -2.26562,-0.8125 -0.71875,-0.54688 -0.71875,-2.01563 0,-1.46875 0.98437,-2.1875 1,-0.71875 2.5625,-0.71875 1.21875,0 2.98438,0.29688 l 0.59375,0.125 z m 7.92166,-1.95313 h 2.04688 v 9.5 h -2.04688 v -0.59375 q -1.39062,0.79688 -2.5625,0.79688 -1.96875,0 -2.64062,-1.04688 -0.65625,-1.0625 -0.65625,-3.70312 v -4.95313 h 2.07812 v 4.98438 q 0,1.70312 0.28125,2.29687 0.28125,0.57813 1.32813,0.57813 1.03125,0 1.875,-0.375 l 0.29687,-0.10938 z m 11.13035,7.79688 0.53125,-0.0625 0.0469,1.53125 q -2.17187,0.4375 -3.84375,0.4375 -2.10937,0 -3.03125,-1.15625 -0.92187,-1.15625 -0.92187,-3.70313 0,-5.04687 4.125,-5.04687 3.98437,0 3.98437,4.34375 l -0.125,1.48437 h -5.89062 q 0.0156,1.17188 0.5,1.73438 0.5,0.54687 1.84375,0.54687 1.35937,0 2.78125,-0.10937 z m -1.14063,-3.76563 q 0,-1.40625 -0.45312,-1.96875 -0.4375,-0.5625 -1.5,-0.5625 -1.0625,0 -1.54688,0.59375 -0.48437,0.57813 -0.5,1.9375 z m 10.44611,-2.07812 q -2.23438,-0.29688 -3.25,-0.29688 -1,0 -1.39063,0.23438 -0.39062,0.23437 -0.39062,0.75 0,0.51562 0.42187,0.73437 0.4375,0.20313 2.01563,0.48438 1.59375,0.26562 2.25,0.85937 0.67187,0.57813 0.67187,2.07813 0,1.5 -0.96875,2.20312 -0.95312,0.70313 -2.79687,0.70313 -1.15625,0 -2.92188,-0.3125 l -0.59375,-0.0937 0.0781,-1.73438 q 2.28125,0.29688 3.28125,0.29688 1.01562,0 1.4375,-0.23438 0.4375,-0.25 0.4375,-0.8125 0,-0.57812 -0.42188,-0.79687 -0.40625,-0.21875 -1.95312,-0.46875 -1.54688,-0.26563 -2.26563,-0.8125 -0.71875,-0.54688 -0.71875,-2.01563 0,-1.46875 0.98438,-2.1875 1,-0.71875 2.5625,-0.71875 1.21875,0 2.98437,0.29688 l 0.59375,0.125 z" />
      <path
         inkscape:label="line2"
         style="fill:#000000;fill-rule:nonzero"
         inkscape:connector-curvature="0"
         id="path185"
         d="m 269.60587,806.2104 0.53125,-0.0625 0.0469,1.53125 q -2.17187,0.4375 -3.84375,0.4375 -2.10937,0 -3.03125,-1.15625 -0.92187,-1.15625 -0.92187,-3.70312 0,-5.04688 4.125,-5.04688 3.98437,0 3.98437,4.34375 l -0.125,1.48438 h -5.89062 q 0.0156,1.17187 0.5,1.73437 0.5,0.54688 1.84375,0.54688 1.35937,0 2.78125,-0.10938 z m -1.14063,-3.76562 q 0,-1.40625 -0.45312,-1.96875 -0.4375,-0.5625 -1.5,-0.5625 -1.0625,0 -1.54688,0.59375 -0.48437,0.57812 -0.5,1.9375 z m 5.93052,5.46875 h -2.07813 v -9.5 h 2.0625 v 0.59375 q 1.34375,-0.79688 2.46875,-0.79688 1.64063,0 2.40625,0.92188 1.73438,-0.92188 3.4375,-0.92188 1.71875,0 2.42188,1.0625 0.70312,1.04688 0.70312,3.54688 v 5.09375 h -2.0625 v -5.03125 q 0,-1.54688 -0.3125,-2.1875 -0.3125,-0.64063 -1.29687,-0.64063 -0.85938,0 -1.84375,0.375 l -0.32813,0.125 q 0.15625,0.39063 0.15625,2.4375 v 4.92188 h -2.04687 v -4.89063 q 0,-1.6875 -0.3125,-2.32812 -0.29688,-0.64063 -1.32813,-0.64063 -0.95312,0 -1.76562,0.375 l -0.28125,0.10938 z m 23.42581,-9.5 h 2.04687 v 9.5 h -2.04687 v -0.59375 q -1.39063,0.79687 -2.5625,0.79687 -1.96875,0 -2.64063,-1.04687 -0.65625,-1.0625 -0.65625,-3.70313 v -4.95312 h 2.07813 v 4.98437 q 0,1.70313 0.28125,2.29688 0.28125,0.57812 1.32812,0.57812 1.03125,0 1.875,-0.375 l 0.29688,-0.10937 z m 6.44284,9.5 h -2.07813 v -9.5 h 2.0625 v 0.59375 q 1.34375,-0.79688 2.46875,-0.79688 1.64063,0 2.40625,0.92188 1.73438,-0.92188 3.4375,-0.92188 1.71875,0 2.42188,1.0625 0.70312,1.04688 0.70312,3.54688 v 5.09375 h -2.0625 v -5.03125 q 0,-1.54688 -0.3125,-2.1875 -0.3125,-0.64063 -1.29687,-0.64063 -0.85938,0 -1.84375,0.375 l -0.32813,0.125 q 0.15625,0.39063 0.15625,2.4375 v 4.92188 h -2.04687 v -4.89063 q 0,-1.6875 -0.3125,-2.32812 -0.29688,-0.64063 -1.32813,-0.64063 -0.95312,0 -1.76562,0.375 l -0.28125,0.10938 z m 21.22269,-9.70313 q 1,0 2.375,0.26563 l 0.46875,0.0937 -0.0781,1.625 q -1.5,-0.14063 -2.21875,-0.14063 -1.45312,0 -1.95312,0.64063 -0.48438,0.64062 -0.48438,2.4375 0,1.78125 0.46875,2.46875 0.48438,0.67187 1.98438,0.67187 l 2.21875,-0.14062 0.0625,1.64062 q -1.92188,0.34375 -2.89063,0.34375 -2.15625,0 -3.04687,-1.15625 -0.875,-1.17187 -0.875,-3.82812 0,-2.67188 0.92187,-3.79688 0.9375,-1.125 3.04688,-1.125 z m 11.71481,3.125 v 4.34375 q 0.0156,0.40625 0.21875,0.60938 0.20312,0.20312 0.625,0.25 l -0.0625,1.57812 q -1.64063,0 -2.53125,-0.70312 -1.51563,0.70312 -3.04688,0.70312 -2.84375,0 -2.84375,-3.01562 0,-1.4375 0.76563,-2.07813 0.78125,-0.65625 2.375,-0.79687 l 2.45312,-0.20313 v -0.6875 q 0,-0.75 -0.34375,-1.04687 -0.32812,-0.3125 -0.96875,-0.3125 -1.21875,0 -3.04687,0.14062 l -0.60938,0.0469 -0.0625,-1.46875 q 2.0625,-0.48438 3.79688,-0.48438 1.75,0 2.51562,0.75 0.76563,0.75 0.76563,2.375 z m -4.25,2.35938 q -1.3125,0.10937 -1.3125,1.42187 0,1.3125 1.15625,1.3125 0.95312,0 2.01562,-0.29687 l 0.34375,-0.125 v -2.51563 z m 6.80246,4.21875 V 794.4604 h 2.0625 v 13.45313 z m 11.36066,-1.70313 0.53125,-0.0625 0.0469,1.53125 q -2.17187,0.4375 -3.84375,0.4375 -2.10937,0 -3.03125,-1.15625 -0.92187,-1.15625 -0.92187,-3.70312 0,-5.04688 4.125,-5.04688 3.98437,0 3.98437,4.34375 l -0.125,1.48438 h -5.89062 q 0.0156,1.17187 0.5,1.73437 0.5,0.54688 1.84375,0.54688 1.35937,0 2.78125,-0.10938 z m -1.14063,-3.76562 q 0,-1.40625 -0.45312,-1.96875 -0.4375,-0.5625 -1.5,-0.5625 -1.0625,0 -1.54688,0.59375 -0.48437,0.57812 -0.5,1.9375 z m 5.93051,5.46875 h -2.07812 v -9.5 h 2.0625 v 0.59375 q 1.375,-0.79688 2.60937,-0.79688 1.90625,0 2.59375,1.07813 0.70313,1.0625 0.70313,3.53125 v 5.09375 h -2.0625 v -5.03125 q 0,-1.54688 -0.32813,-2.1875 -0.32812,-0.64063 -1.35937,-0.64063 -0.96875,0 -1.85938,0.375 l -0.28125,0.10938 z m 15.85816,-13.45313 v 13.45313 h -2.04688 v -0.5 q -1.39059,0.70312 -2.54684,0.70312 -1.85938,0 -2.73438,-1.10937 -0.85937,-1.125 -0.85937,-3.76563 0,-2.64062 0.95312,-3.82812 0.96875,-1.20313 3,-1.20313 0.6875,0 2.17185,0.23438 v -3.98438 z m -2.39063,11.48438 0.32813,-0.14063 v -5.625 q -1.1406,-0.1875 -2.10935,-0.1875 -1.92187,0 -1.92187,3.1875 0,1.75 0.4375,2.42188 0.45312,0.67187 1.42187,0.67187 0.96875,0 1.84372,-0.32812 z m 11.74625,-4.60938 v 4.34375 q 0.0156,0.40625 0.21875,0.60938 0.20312,0.20312 0.625,0.25 l -0.0625,1.57812 q -1.64063,0 -2.53125,-0.70312 -1.51563,0.70312 -3.04688,0.70312 -2.84375,0 -2.84375,-3.01562 0,-1.4375 0.76563,-2.07813 0.78125,-0.65625 2.375,-0.79687 l 2.45312,-0.20313 v -0.6875 q 0,-0.75 -0.34375,-1.04687 -0.32812,-0.3125 -0.96875,-0.3125 -1.21875,0 -3.04687,0.14062 l -0.60938,0.0469 -0.0625,-1.46875 q 2.0625,-0.48438 3.79688,-0.48438 1.75,0 2.51562,0.75 0.76563,0.75 0.76563,2.375 z m -4.25,2.35938 q -1.3125,0.10937 -1.3125,1.42187 0,1.3125 1.15625,1.3125 0.95312,0 2.01562,-0.29687 l 0.34375,-0.125 v -2.51563 z m -2.03125,-8.07813 4.48437,-1.92187 0.64063,1.79687 -4.64063,1.48438 z m 8.70874,12.29688 v -9.5 h 2.0625 v 1.14062 q 1.60937,-1.04687 3.21875,-1.34375 v 2.0625 q -1.625,0.32813 -2.78125,0.84375 l -0.42188,0.17188 v 6.625 z m 6.73489,0 v -9.5 h 2.07813 v 9.5 z m 0,-11.10938 v -2.1875 h 2.07813 v 2.1875 z m 5.01178,2.64063 q 0.98438,-1.23438 3.26563,-1.23438 2.28125,0 3.25,1.23438 0.98437,1.23437 0.98437,3.70312 0,2.46875 -0.95312,3.71875 -0.9375,1.25 -3.28125,1.25 -2.32813,0 -3.28125,-1.25 -0.95313,-1.25 -0.95313,-3.71875 0,-2.46875 0.96875,-3.70312 z m 1.5625,6.17187 q 0.4375,0.76563 1.70313,0.76563 1.28125,0 1.71875,-0.76563 0.4375,-0.76562 0.4375,-2.48437 0,-1.73438 -0.46875,-2.45313 -0.46875,-0.73437 -1.6875,-0.73437 -1.21875,0 -1.6875,0.73437 -0.45313,0.71875 -0.45313,2.45313 0,1.71875 0.4375,2.48437 z m 19.66406,-11.15625 v 13.45313 h -2.04687 v -0.5 q -1.39063,0.70312 -2.54688,0.70312 -1.85937,0 -2.73437,-1.10937 -0.85938,-1.125 -0.85938,-3.76563 0,-2.64062 0.95313,-3.82812 0.96875,-1.20313 3,-1.20313 0.6875,0 2.17187,0.23438 v -3.98438 z m -2.39062,11.48438 0.32812,-0.14063 v -5.625 q -1.14062,-0.1875 -2.10937,-0.1875 -1.92188,0 -1.92188,3.1875 0,1.75 0.4375,2.42188 0.45313,0.67187 1.42188,0.67187 0.96875,0 1.84375,-0.32812 z m 11.48062,0.26562 0.53125,-0.0625 0.0469,1.53125 q -2.17187,0.4375 -3.84375,0.4375 -2.10937,0 -3.03125,-1.15625 -0.92187,-1.15625 -0.92187,-3.70312 0,-5.04688 4.125,-5.04688 3.98437,0 3.98437,4.34375 l -0.125,1.48438 h -5.89062 q 0.0156,1.17187 0.5,1.73437 0.5,0.54688 1.84375,0.54688 1.35937,0 2.78125,-0.10938 z m -1.14063,-3.76562 q 0,-1.40625 -0.45312,-1.96875 -0.4375,-0.5625 -1.5,-0.5625 -1.0625,0 -1.54688,0.59375 -0.48437,0.57812 -0.5,1.9375 z" />
      <path
         inkscape:label="line3"
         style="fill:#000000;fill-rule:nonzero"
         inkscape:connector-curvature="0"
         id="path187"
         d="m 303.63007,829.9135 h -2.07813 v -9.5 h 2.0625 v 0.59375 q 1.34375,-0.79688 2.46875,-0.79688 1.64063,0 2.40625,0.92188 1.73438,-0.92188 3.4375,-0.92188 1.71875,0 2.42188,1.0625 0.70312,1.04688 0.70312,3.54688 v 5.09375 h -2.0625 v -5.03125 q 0,-1.54688 -0.3125,-2.1875 -0.3125,-0.64063 -1.29687,-0.64063 -0.85938,0 -1.84375,0.375 l -0.32813,0.125 q 0.15625,0.39063 0.15625,2.4375 v 4.92188 h -2.04687 v -4.89063 q 0,-1.6875 -0.3125,-2.32812 -0.29688,-0.64063 -1.32813,-0.64063 -0.95312,0 -1.76562,0.375 l -0.28125,0.10938 z m 13.55582,0 v -9.5 h 2.07812 v 9.5 z m 0,-11.10938 v -2.1875 h 2.07812 v 2.1875 z m 4.62115,11.10938 v -13.45313 h 2.0625 v 13.45313 z m 11.36066,-1.70313 0.53125,-0.0625 0.0469,1.53125 q -2.17187,0.4375 -3.84375,0.4375 -2.10937,0 -3.03125,-1.15625 -0.92187,-1.15625 -0.92187,-3.70312 0,-5.04688 4.125,-5.04688 3.98437,0 3.98437,4.34375 l -0.125,1.48438 h -5.89062 q 0.0156,1.17187 0.5,1.73437 0.5,0.54688 1.84375,0.54688 1.35937,0 2.78125,-0.10938 z m -1.14063,-3.76562 q 0,-1.40625 -0.45312,-1.96875 -0.4375,-0.5625 -1.5,-0.5625 -1.0625,0 -1.54688,0.59375 -0.48437,0.57812 -0.5,1.9375 z m 10.44614,-2.07813 q -2.23438,-0.29687 -3.25,-0.29687 -1,0 -1.39063,0.23437 -0.39062,0.23438 -0.39062,0.75 0,0.51563 0.42187,0.73438 0.4375,0.20312 2.01563,0.48437 1.59375,0.26563 2.25,0.85938 0.67187,0.57812 0.67187,2.07812 0,1.5 -0.96875,2.20313 -0.95312,0.70312 -2.79687,0.70312 -1.15625,0 -2.92188,-0.3125 l -0.59375,-0.0937 0.0781,-1.73437 q 2.28125,0.29687 3.28125,0.29687 1.01562,0 1.4375,-0.23437 0.4375,-0.25 0.4375,-0.8125 0,-0.57813 -0.42188,-0.79688 -0.40625,-0.21875 -1.95312,-0.46875 -1.54688,-0.26562 -2.26563,-0.8125 -0.71875,-0.54687 -0.71875,-2.01562 0,-1.46875 0.98438,-2.1875 1,-0.71875 2.5625,-0.71875 1.21875,0 2.98437,0.29687 l 0.59375,0.125 z m 7.26541,-0.1875 h -2.60937 v 4.1875 q 0,1.15625 0.15625,1.53125 0.17187,0.375 0.875,0.375 l 1.5625,-0.0469 0.0937,1.65625 q -1.26563,0.23437 -1.9375,0.23437 -1.60938,0 -2.21875,-0.73437 -0.59375,-0.73438 -0.59375,-2.79688 v -4.40625 h -1.2187 v -1.76562 h 1.21875 v -2.75 h 2.0625 v 2.75 h 2.60937 z m 2.08518,-0.73437 q 0.98437,-1.23438 3.26562,-1.23438 2.28125,0 3.25,1.23438 0.98438,1.23437 0.98438,3.70312 0,2.46875 -0.95313,3.71875 -0.9375,1.25 -3.28125,1.25 -2.32812,0 -3.28125,-1.25 -0.95312,-1.25 -0.95312,-3.71875 0,-2.46875 0.96875,-3.70312 z m 1.5625,6.17187 q 0.4375,0.76563 1.70312,0.76563 1.28125,0 1.71875,-0.76563 0.4375,-0.76562 0.4375,-2.48437 0,-1.73438 -0.46875,-2.45313 -0.46875,-0.73437 -1.6875,-0.73437 -1.21875,0 -1.6875,0.73437 -0.45312,0.71875 -0.45312,2.45313 0,1.71875 0.4375,2.48437 z m 9.88781,2.29688 h -2.07812 v -9.5 h 2.0625 v 0.59375 q 1.375,-0.79688 2.60937,-0.79688 1.90625,0 2.59375,1.07813 0.70313,1.0625 0.70313,3.53125 v 5.09375 h -2.0625 v -5.03125 q 0,-1.54688 -0.32813,-2.1875 -0.32812,-0.64063 -1.35937,-0.64063 -0.96875,0 -1.85938,0.375 l -0.28125,0.10938 z m 14.87381,-1.70313 0.53125,-0.0625 0.0469,1.53125 q -2.17188,0.4375 -3.84375,0.4375 -2.10938,0 -3.03125,-1.15625 -0.92188,-1.15625 -0.92188,-3.70312 0,-5.04688 4.125,-5.04688 3.98438,0 3.98438,4.34375 l -0.125,1.48438 h -5.89063 q 0.0156,1.17187 0.5,1.73437 0.5,0.54688 1.84375,0.54688 1.35938,0 2.78125,-0.10938 z m -1.14062,-3.76562 q 0,-1.40625 -0.45313,-1.96875 -0.4375,-0.5625 -1.5,-0.5625 -1.0625,0 -1.54687,0.59375 -0.48438,0.57812 -0.5,1.9375 z m 10.44613,-2.07813 q -2.23437,-0.29687 -3.25,-0.29687 -1,0 -1.39062,0.23437 -0.39063,0.23438 -0.39063,0.75 0,0.51563 0.42188,0.73438 0.4375,0.20312 2.01562,0.48437 1.59375,0.26563 2.25,0.85938 0.67188,0.57812 0.67188,2.07812 0,1.5 -0.96875,2.20313 -0.95313,0.70312 -2.79688,0.70312 -1.15625,0 -2.92187,-0.3125 l -0.59375,-0.0937 0.0781,-1.73437 q 2.28125,0.29687 3.28125,0.29687 1.01563,0 1.4375,-0.23437 0.4375,-0.25 0.4375,-0.8125 0,-0.57813 -0.42187,-0.79688 -0.40625,-0.21875 -1.95313,-0.46875 -1.54687,-0.26562 -2.26562,-0.8125 -0.71875,-0.54687 -0.71875,-2.01562 0,-1.46875 0.98437,-2.1875 1,-0.71875 2.5625,-0.71875 1.21875,0 2.98438,0.29687 l 0.59375,0.125 z" />
    </g>
    <g
       inkscape:label="step2"
       id="g4872">
      <path
         inkscape:label="fill"
         style="fill:#e6b8af;fill-rule:evenodd"
         inkscape:connector-curvature="0"
         id="path189"
         d="m 535.1271,867.05536 v 0 C 535.1271,860.94965 540.07675,856 546.1824,856 h 140.88147 c 2.93207,0 5.74402,1.16473 7.81732,3.23804 2.07324,2.0733 3.23804,4.88525 3.23804,7.81732 v 44.22003 c 0,6.10565 -4.94965,11.0553 -11.05536,11.0553 H 546.1824 v 0 c -6.10565,0 -11.0553,-4.94965 -11.0553,-11.0553 z" />
      <path
         inkscape:label="border"
         style="fill-rule:evenodd;stroke:#000000;stroke-width:2;stroke-linecap:butt;stroke-linejoin:round"
         inkscape:connector-curvature="0"
         id="path191"
         d="m 535.1271,867.05536 v 0 C 535.1271,860.94965 540.07675,856 546.1824,856 h 140.88147 c 2.93207,0 5.74402,1.16473 7.81732,3.23804 2.07324,2.0733 3.23804,4.88525 3.23804,7.81732 v 44.22003 c 0,6.10565 -4.94965,11.0553 -11.05536,11.0553 H 546.1824 v 0 c -6.10565,0 -11.0553,-4.94965 -11.0553,-11.0553 z" />
      <path
         inkscape:label="title"
         style="fill:#000000;fill-rule:nonzero"
         inkscape:connector-curvature="0"
         id="path193"
         d="m 583.861,896.28845 q -2.85938,0 -3.875,-1.5625 -1.01563,-1.57813 -1.01563,-5.1875 0,-3.625 1.03125,-5.14063 1.03125,-1.53125 3.85938,-1.53125 1.6875,0 3.71875,0.46875 l -0.0781,1.71875 q -1.70312,-0.3125 -3.42187,-0.3125 -1.70313,0 -2.3125,1.01563 -0.60938,1.01562 -0.60938,3.82812 0,2.79688 0.57813,3.8125 0.59375,1.01563 2.29687,1.01563 1.71875,0 3.46875,-0.28125 l 0.0625,1.75 q -1.95312,0.40625 -3.70312,0.40625 z m 6.03961,-8.67188 q 0.98438,-1.23437 3.26563,-1.23437 2.28125,0 3.25,1.23437 0.98437,1.23438 0.98437,3.70313 0,2.46875 -0.95312,3.71875 -0.9375,1.25 -3.28125,1.25 -2.32813,0 -3.28125,-1.25 -0.95313,-1.25 -0.95313,-3.71875 0,-2.46875 0.96875,-3.70313 z m 1.5625,6.17188 q 0.4375,0.76562 1.70313,0.76562 1.28125,0 1.71875,-0.76562 0.4375,-0.76563 0.4375,-2.48438 0,-1.73437 -0.46875,-2.45312 -0.46875,-0.73438 -1.6875,-0.73438 -1.21875,0 -1.6875,0.73438 -0.45313,0.71875 -0.45313,2.45312 0,1.71875 0.4375,2.48438 z m 9.88782,2.29687 h -2.07813 v -9.5 h 2.0625 v 0.59375 q 1.375,-0.79687 2.60938,-0.79687 1.90625,0 2.59375,1.07812 0.70312,1.0625 0.70312,3.53125 v 5.09375 h -2.0625 v -5.03125 q 0,-1.54687 -0.32812,-2.1875 -0.32813,-0.64062 -1.35938,-0.64062 -0.96875,0 -1.85937,0.375 l -0.28125,0.10937 z m 14.70196,-7.54687 q -2.23437,-0.29688 -3.25,-0.29688 -1,0 -1.39062,0.23438 -0.39063,0.23437 -0.39063,0.75 0,0.51562 0.42188,0.73437 0.4375,0.20313 2.01562,0.48438 1.59375,0.26562 2.25,0.85937 0.67188,0.57813 0.67188,2.07813 0,1.5 -0.96875,2.20312 -0.95313,0.70313 -2.79688,0.70313 -1.15625,0 -2.92187,-0.3125 l -0.59375,-0.0937 0.0781,-1.73438 q 2.28125,0.29688 3.28125,0.29688 1.01563,0 1.4375,-0.23438 0.4375,-0.25 0.4375,-0.8125 0,-0.57812 -0.42187,-0.79687 -0.40625,-0.21875 -1.95313,-0.46875 -1.54687,-0.26563 -2.26562,-0.8125 -0.71875,-0.54688 -0.71875,-2.01563 0,-1.46875 0.98437,-2.1875 1,-0.71875 2.5625,-0.71875 1.21875,0 2.98438,0.29688 l 0.59375,0.125 z m 8.92164,5.84375 0.53125,-0.0625 0.0469,1.53125 q -2.17187,0.4375 -3.84375,0.4375 -2.10937,0 -3.03125,-1.15625 -0.92187,-1.15625 -0.92187,-3.70313 0,-5.04687 4.125,-5.04687 3.98437,0 3.98437,4.34375 l -0.125,1.48437 h -5.89062 q 0.0156,1.17188 0.5,1.73438 0.5,0.54687 1.84375,0.54687 1.35937,0 2.78125,-0.10937 z m -1.14063,-3.76563 q 0,-1.40625 -0.45312,-1.96875 -0.4375,-0.5625 -1.5,-0.5625 -1.0625,0 -1.54688,0.59375 -0.48437,0.57813 -0.5,1.9375 z m 5.93054,5.46875 h -2.07812 v -9.5 h 2.0625 v 0.59375 q 1.375,-0.79687 2.60937,-0.79687 1.90625,0 2.59375,1.07812 0.70313,1.0625 0.70313,3.53125 v 5.09375 h -2.0625 v -5.03125 q 0,-1.54687 -0.32813,-2.1875 -0.32812,-0.64062 -1.35937,-0.64062 -0.96875,0 -1.85938,0.375 l -0.28125,0.10937 z m 14.70191,-7.54687 q -2.23438,-0.29688 -3.25,-0.29688 -1,0 -1.39063,0.23438 -0.39062,0.23437 -0.39062,0.75 0,0.51562 0.42187,0.73437 0.4375,0.20313 2.01563,0.48438 1.59375,0.26562 2.25,0.85937 0.67187,0.57813 0.67187,2.07813 0,1.5 -0.96875,2.20312 -0.95312,0.70313 -2.79687,0.70313 -1.15625,0 -2.92188,-0.3125 l -0.59375,-0.0937 0.0781,-1.73438 q 2.28125,0.29688 3.28125,0.29688 1.01562,0 1.4375,-0.23438 0.4375,-0.25 0.4375,-0.8125 0,-0.57812 -0.42188,-0.79687 -0.40625,-0.21875 -1.95312,-0.46875 -1.54688,-0.26563 -2.26563,-0.8125 -0.71875,-0.54688 -0.71875,-2.01563 0,-1.46875 0.98438,-2.1875 1,-0.71875 2.5625,-0.71875 1.21875,0 2.98437,0.29688 l 0.59375,0.125 z m 2.67169,-0.92188 q 0.98437,-1.23437 3.26562,-1.23437 2.28125,0 3.25,1.23437 0.98438,1.23438 0.98438,3.70313 0,2.46875 -0.95313,3.71875 -0.9375,1.25 -3.28125,1.25 -2.32812,0 -3.28125,-1.25 -0.95312,-1.25 -0.95312,-3.71875 0,-2.46875 0.96875,-3.70313 z m 1.5625,6.17188 q 0.4375,0.76562 1.70312,0.76562 1.28125,0 1.71875,-0.76562 0.4375,-0.76563 0.4375,-2.48438 0,-1.73437 -0.46875,-2.45312 -0.46875,-0.73438 -1.6875,-0.73438 -1.21875,0 -1.6875,0.73438 -0.45312,0.71875 -0.45312,2.45312 0,1.71875 0.4375,2.48438 z" />
    </g>
    <g
       inkscape:label="step2-info"
       id="g4897">
      <path
         inkscape:label="line1"
         style="fill:#000000;fill-rule:nonzero"
         inkscape:connector-curvature="0"
         id="path197"
         d="m 572.37695,778.17914 h -2.60938 v 4.1875 q 0,1.15625 0.15625,1.53125 0.17188,0.375 0.875,0.375 l 1.5625,-0.0469 0.0937,1.65625 q -1.26562,0.23438 -1.9375,0.23438 -1.60937,0 -2.21875,-0.73438 -0.59375,-0.73437 -0.59375,-2.79687 v -4.40625 h -1.21875 v -1.76563 h 1.21875 v -2.75 h 2.0625 v 2.75 h 2.60938 z m 1.56952,7.73437 v -9.5 h 2.07812 v 9.5 z m 0,-11.10937 v -2.1875 h 2.07812 v 2.1875 z m 6.57428,11.10937 h -2.07813 v -9.5 h 2.0625 v 0.59375 q 1.34375,-0.79687 2.46875,-0.79687 1.64063,0 2.40625,0.92187 1.73438,-0.92187 3.4375,-0.92187 1.71875,0 2.42188,1.0625 0.70312,1.04687 0.70312,3.54687 v 5.09375 h -2.0625 v -5.03125 q 0,-1.54687 -0.3125,-2.1875 -0.3125,-0.64062 -1.29687,-0.64062 -0.85938,0 -1.84375,0.375 l -0.32813,0.125 q 0.15625,0.39062 0.15625,2.4375 v 4.92187 h -2.04687 v -4.89062 q 0,-1.6875 -0.3125,-2.32813 -0.29688,-0.64062 -1.32813,-0.64062 -0.95312,0 -1.76562,0.375 l -0.28125,0.10937 z m 20.32147,-1.70312 0.53125,-0.0625 0.0469,1.53125 q -2.17188,0.4375 -3.84375,0.4375 -2.10938,0 -3.03125,-1.15625 -0.92188,-1.15625 -0.92188,-3.70313 0,-5.04687 4.125,-5.04687 3.98438,0 3.98438,4.34375 l -0.125,1.48437 h -5.89063 q 0.0156,1.17188 0.5,1.73438 0.5,0.54687 1.84375,0.54687 1.35938,0 2.78125,-0.10937 z m -1.14062,-3.76563 q 0,-1.40625 -0.45313,-1.96875 -0.4375,-0.5625 -1.5,-0.5625 -1.0625,0 -1.54687,0.59375 -0.48438,0.57813 -0.5,1.9375 z m 10.45672,-2.26562 v 7.73437 h -2.0625 v -7.73437 h -1.09375 v -1.76563 h 1.09375 v -0.60937 q 0,-2.03125 0.59375,-2.78125 0.59375,-0.76563 2.09375,-0.76563 l 2.04688,0.1875 -0.0156,1.6875 q -0.9375,-0.0312 -1.5625,-0.0312 -0.60937,0 -0.85937,0.375 -0.23438,0.35938 -0.23438,1.34375 v 0.59375 h 2.5 v 1.76563 z m 3.95508,7.73437 v -9.5 h 2.07813 v 9.5 z m 0,-11.10937 v -2.1875 h 2.07813 v 2.1875 z m 4.49616,11.10937 v -9.5 h 2.0625 v 1.14063 q 1.60937,-1.04688 3.21875,-1.34375 v 2.0625 q -1.625,0.32812 -2.78125,0.84375 l -0.42188,0.17187 v 6.625 z m 8.81304,0 h -2.07812 v -9.5 h 2.0625 v 0.59375 q 1.34375,-0.79687 2.46875,-0.79687 1.64062,0 2.40625,0.92187 1.73437,-0.92187 3.4375,-0.92187 1.71875,0 2.42187,1.0625 0.70313,1.04687 0.70313,3.54687 v 5.09375 h -2.0625 v -5.03125 q 0,-1.54687 -0.3125,-2.1875 -0.3125,-0.64062 -1.29688,-0.64062 -0.85937,0 -1.84375,0.375 l -0.32812,0.125 q 0.15625,0.39062 0.15625,2.4375 v 4.92187 h -2.04688 v -4.89062 q 0,-1.6875 -0.3125,-2.32813 -0.29687,-0.64062 -1.32812,-0.64062 -0.95313,0 -1.76563,0.375 l -0.28125,0.10937 z m 20.58704,-6.57812 v 4.34375 q 0.0156,0.40625 0.21875,0.60937 0.20313,0.20313 0.625,0.25 l -0.0625,1.57813 q -1.64062,0 -2.53125,-0.70313 -1.51562,0.70313 -3.04687,0.70313 -2.84375,0 -2.84375,-3.01563 0,-1.4375 0.76562,-2.07812 0.78125,-0.65625 2.375,-0.79688 l 2.45313,-0.20312 v -0.6875 q 0,-0.75 -0.34375,-1.04688 -0.32813,-0.3125 -0.96875,-0.3125 -1.21875,0 -3.04688,0.14063 l -0.60937,0.0469 -0.0625,-1.46875 q 2.0625,-0.48437 3.79687,-0.48437 1.75,0 2.51563,0.75 0.76562,0.75 0.76562,2.375 z m -4.25,2.35937 q -1.3125,0.10938 -1.3125,1.42188 0,1.3125 1.15625,1.3125 0.95313,0 2.01563,-0.29688 l 0.34375,-0.125 v -2.51562 z m 11.29749,-4.25 q 0.98437,-1.23437 3.26562,-1.23437 2.28125,0 3.25,1.23437 0.98438,1.23438 0.98438,3.70313 0,2.46875 -0.95313,3.71875 -0.9375,1.25 -3.28125,1.25 -2.32812,0 -3.28125,-1.25 -0.95312,-1.25 -0.95312,-3.71875 0,-2.46875 0.96875,-3.70313 z m 1.5625,6.17188 q 0.4375,0.76562 1.70312,0.76562 1.28125,0 1.71875,-0.76562 0.4375,-0.76563 0.4375,-2.48438 0,-1.73437 -0.46875,-2.45312 -0.46875,-0.73438 -1.6875,-0.73438 -1.21875,0 -1.6875,0.73438 -0.45312,0.71875 -0.45312,2.45312 0,1.71875 0.4375,2.48438 z" />
      <path
         inkscape:label="line2"
         style="fill:#000000;fill-rule:nonzero"
         inkscape:connector-curvature="0"
         id="path199"
         d="m 539.5155,798.2104 q 1,0 2.375,0.26563 l 0.46875,0.0937 -0.0781,1.625 q -1.5,-0.14063 -2.21875,-0.14063 -1.45312,0 -1.95312,0.64063 -0.48438,0.64062 -0.48438,2.4375 0,1.78125 0.46875,2.46875 0.48438,0.67187 1.98438,0.67187 l 2.21875,-0.14062 0.0625,1.64062 q -1.92188,0.34375 -2.89063,0.34375 -2.15625,0 -3.04687,-1.15625 -0.875,-1.17187 -0.875,-3.82812 0,-2.67188 0.92187,-3.79688 0.9375,-1.125 3.04688,-1.125 z m 5.19922,1.23438 q 0.98437,-1.23438 3.26562,-1.23438 2.28125,0 3.25,1.23438 0.98438,1.23437 0.98438,3.70312 0,2.46875 -0.95313,3.71875 -0.9375,1.25 -3.28125,1.25 -2.32812,0 -3.28125,-1.25 -0.95312,-1.25 -0.95312,-3.71875 0,-2.46875 0.96875,-3.70312 z m 1.5625,6.17187 q 0.4375,0.76563 1.70312,0.76563 1.28125,0 1.71875,-0.76563 0.4375,-0.76562 0.4375,-2.48437 0,-1.73438 -0.46875,-2.45313 -0.46875,-0.73437 -1.6875,-0.73437 -1.21875,0 -1.6875,0.73437 -0.45312,0.71875 -0.45312,2.45313 0,1.71875 0.4375,2.48437 z m 9.88782,2.29688 h -2.07813 v -9.5 h 2.0625 v 0.59375 q 1.34375,-0.79688 2.46875,-0.79688 1.64063,0 2.40625,0.92188 1.73438,-0.92188 3.4375,-0.92188 1.71875,0 2.42188,1.0625 0.70312,1.04688 0.70312,3.54688 v 5.09375 h -2.0625 v -5.03125 q 0,-1.54688 -0.3125,-2.1875 -0.3125,-0.64063 -1.29687,-0.64063 -0.85938,0 -1.84375,0.375 l -0.32813,0.125 q 0.15625,0.39063 0.15625,2.4375 v 4.92188 h -2.04687 v -4.89063 q 0,-1.6875 -0.3125,-2.32812 -0.29688,-0.64063 -1.32813,-0.64063 -0.95312,0 -1.76562,0.375 l -0.28125,0.10938 z m 13.55578,4.07812 v -13.57812 h 2.0625 v 0.59375 q 1.29688,-0.79688 2.4375,-0.79688 1.89063,0 2.76563,1.15625 0.875,1.14063 0.875,3.84375 0,2.70313 -1,3.8125 -1,1.09375 -3.26563,1.09375 -0.78125,0 -1.79687,-0.17187 v 4.04687 z m 4.14063,-11.9375 q -0.89063,0 -1.78125,0.39063 l -0.28125,0.14062 v 5.59375 q 0.75,0.15625 1.67187,0.15625 1.28125,0 1.78125,-0.73437 0.5,-0.75 0.5,-2.53125 0,-3.01563 -1.89062,-3.01563 z m 5.8778,7.85938 v -9.5 h 2.0625 v 1.14062 q 1.60938,-1.04687 3.21875,-1.34375 v 2.0625 q -1.625,0.32813 -2.78125,0.84375 l -0.42187,0.17188 v 6.625 z m 7.25049,-8.46875 q 0.98438,-1.23438 3.26563,-1.23438 2.28125,0 3.25,1.23438 0.98437,1.23437 0.98437,3.70312 0,2.46875 -0.95312,3.71875 -0.9375,1.25 -3.28125,1.25 -2.32813,0 -3.28125,-1.25 -0.95313,-1.25 -0.95313,-3.71875 0,-2.46875 0.96875,-3.70312 z m 1.5625,6.17187 q 0.4375,0.76563 1.70313,0.76563 1.28125,0 1.71875,-0.76563 0.4375,-0.76562 0.4375,-2.48437 0,-1.73438 -0.46875,-2.45313 -0.46875,-0.73437 -1.6875,-0.73437 -1.21875,0 -1.6875,0.73437 -0.45313,0.71875 -0.45313,2.45313 0,1.71875 0.4375,2.48437 z m 9.88782,2.29688 h -2.07813 v -9.5 h 2.0625 v 0.59375 q 1.34375,-0.79688 2.46875,-0.79688 1.64063,0 2.40625,0.92188 1.73438,-0.92188 3.4375,-0.92188 1.71875,0 2.42188,1.0625 0.70312,1.04688 0.70312,3.54688 v 5.09375 h -2.0625 v -5.03125 q 0,-1.54688 -0.3125,-2.1875 -0.3125,-0.64063 -1.29687,-0.64063 -0.85938,0 -1.84375,0.375 l -0.32813,0.125 q 0.15625,0.39063 0.15625,2.4375 v 4.92188 h -2.04687 v -4.89063 q 0,-1.6875 -0.3125,-2.32812 -0.29688,-0.64063 -1.32813,-0.64063 -0.95312,0 -1.76562,0.375 l -0.28125,0.10938 z m 13.55585,0 v -9.5 h 2.07812 v 9.5 z m 0,-11.10938 v -2.1875 h 2.07812 v 2.1875 z m 11.0899,3.5625 q -2.23437,-0.29687 -3.25,-0.29687 -1,0 -1.39062,0.23437 -0.39063,0.23438 -0.39063,0.75 0,0.51563 0.42188,0.73438 0.4375,0.20312 2.01562,0.48437 1.59375,0.26563 2.25,0.85938 0.67188,0.57812 0.67188,2.07812 0,1.5 -0.96875,2.20313 -0.95313,0.70312 -2.79688,0.70312 -1.15625,0 -2.92187,-0.3125 l -0.59375,-0.0937 0.0781,-1.73437 q 2.28125,0.29687 3.28125,0.29687 1.01563,0 1.4375,-0.23437 0.4375,-0.25 0.4375,-0.8125 0,-0.57813 -0.42187,-0.79688 -0.40625,-0.21875 -1.95313,-0.46875 -1.54687,-0.26562 -2.26562,-0.8125 -0.71875,-0.54687 -0.71875,-2.01562 0,-1.46875 0.98437,-2.1875 1,-0.71875 2.5625,-0.71875 1.21875,0 2.98438,0.29687 l 0.59375,0.125 z m 8.74976,0 q -2.23438,-0.29687 -3.25,-0.29687 -1,0 -1.39063,0.23437 -0.39062,0.23438 -0.39062,0.75 0,0.51563 0.42187,0.73438 0.4375,0.20312 2.01563,0.48437 1.59375,0.26563 2.25,0.85938 0.67187,0.57812 0.67187,2.07812 0,1.5 -0.96875,2.20313 -0.95312,0.70312 -2.79687,0.70312 -1.15625,0 -2.92188,-0.3125 l -0.59375,-0.0937 0.0781,-1.73437 q 2.28125,0.29687 3.28125,0.29687 1.01562,0 1.4375,-0.23437 0.4375,-0.25 0.4375,-0.8125 0,-0.57813 -0.42188,-0.79688 -0.40625,-0.21875 -1.95312,-0.46875 -1.54688,-0.26562 -2.26563,-0.8125 -0.71875,-0.54687 -0.71875,-2.01562 0,-1.46875 0.98438,-2.1875 1,-0.71875 2.5625,-0.71875 1.21875,0 2.98437,0.29687 l 0.59375,0.125 z m 2.67169,-0.92187 q 0.98437,-1.23438 3.26562,-1.23438 2.28125,0 3.25,1.23438 0.98438,1.23437 0.98438,3.70312 0,2.46875 -0.95313,3.71875 -0.9375,1.25 -3.28125,1.25 -2.32812,0 -3.28125,-1.25 -0.95312,-1.25 -0.95312,-3.71875 0,-2.46875 0.96875,-3.70312 z m 1.5625,6.17187 q 0.4375,0.76563 1.70312,0.76563 1.28125,0 1.71875,-0.76563 0.4375,-0.76562 0.4375,-2.48437 0,-1.73438 -0.46875,-2.45313 -0.46875,-0.73437 -1.6875,-0.73437 -1.21875,0 -1.6875,0.73437 -0.45312,0.71875 -0.45312,2.45313 0,1.71875 0.4375,2.48437 z m 15.47656,-7.40625 q 1,0 2.375,0.26563 l 0.46875,0.0937 -0.0781,1.625 q -1.5,-0.14063 -2.21875,-0.14063 -1.45313,0 -1.95313,0.64063 -0.48437,0.64062 -0.48437,2.4375 0,1.78125 0.46875,2.46875 0.48437,0.67187 1.98437,0.67187 l 2.21875,-0.14062 0.0625,1.64062 q -1.92187,0.34375 -2.89062,0.34375 -2.15625,0 -3.04688,-1.15625 -0.875,-1.17187 -0.875,-3.82812 0,-2.67188 0.92188,-3.79688 0.9375,-1.125 3.04687,-1.125 z m 5.19916,1.23438 q 0.98437,-1.23438 3.26562,-1.23438 2.28125,0 3.25,1.23438 0.98438,1.23437 0.98438,3.70312 0,2.46875 -0.95313,3.71875 -0.9375,1.25 -3.28125,1.25 -2.32812,0 -3.28125,-1.25 -0.95312,-1.25 -0.95312,-3.71875 0,-2.46875 0.96875,-3.70312 z m 1.5625,6.17187 q 0.4375,0.76563 1.70312,0.76563 1.28125,0 1.71875,-0.76563 0.4375,-0.76562 0.4375,-2.48437 0,-1.73438 -0.46875,-2.45313 -0.46875,-0.73437 -1.6875,-0.73437 -1.21875,0 -1.6875,0.73437 -0.45312,0.71875 -0.45312,2.45313 0,1.71875 0.4375,2.48437 z m 9.88782,2.29688 h -2.07813 v -9.5 h 2.0625 v 0.59375 q 1.34375,-0.79688 2.46875,-0.79688 1.64063,0 2.40625,0.92188 1.73438,-0.92188 3.4375,-0.92188 1.71875,0 2.42188,1.0625 0.70312,1.04688 0.70312,3.54688 v 5.09375 h -2.0625 v -5.03125 q 0,-1.54688 -0.3125,-2.1875 -0.3125,-0.64063 -1.29687,-0.64063 -0.85938,0 -1.84375,0.375 l -0.32813,0.125 q 0.15625,0.39063 0.15625,2.4375 v 4.92188 h -2.04687 v -4.89063 q 0,-1.6875 -0.3125,-2.32812 -0.29688,-0.64063 -1.32813,-0.64063 -0.95312,0 -1.76562,0.375 l -0.28125,0.10938 z m 18.17584,-8.46875 q 0.98437,-1.23438 3.26562,-1.23438 2.28125,0 3.25,1.23438 0.98438,1.23437 0.98438,3.70312 0,2.46875 -0.95313,3.71875 -0.9375,1.25 -3.28125,1.25 -2.32812,0 -3.28125,-1.25 -0.95312,-1.25 -0.95312,-3.71875 0,-2.46875 0.96875,-3.70312 z m 1.5625,6.17187 q 0.4375,0.76563 1.70312,0.76563 1.28125,0 1.71875,-0.76563 0.4375,-0.76562 0.4375,-2.48437 0,-1.73438 -0.46875,-2.45313 -0.46875,-0.73437 -1.6875,-0.73437 -1.21875,0 -1.6875,0.73437 -0.45312,0.71875 -0.45312,2.45313 0,1.71875 0.4375,2.48437 z" />
      <path
         inkscape:label="line3"
         style="fill:#000000;fill-rule:nonzero"
         inkscape:connector-curvature="0"
         id="path201"
         d="m 596.44385,829.9135 h -2.07813 v -9.5 h 2.0625 v 0.59375 q 1.375,-0.79688 2.60938,-0.79688 1.90625,0 2.59375,1.07813 0.70312,1.0625 0.70312,3.53125 v 5.09375 h -2.0625 v -5.03125 q 0,-1.54688 -0.32812,-2.1875 -0.32813,-0.64063 -1.35938,-0.64063 -0.96875,0 -1.85937,0.375 l -0.28125,0.10938 z m 8.62384,-8.46875 q 0.98437,-1.23438 3.26562,-1.23438 2.28125,0 3.25,1.23438 0.98438,1.23437 0.98438,3.70312 0,2.46875 -0.95313,3.71875 -0.9375,1.25 -3.28125,1.25 -2.32812,0 -3.28125,-1.25 -0.95312,-1.25 -0.95312,-3.71875 0,-2.46875 0.96875,-3.70312 z m 1.5625,6.17187 q 0.4375,0.76563 1.70312,0.76563 1.28125,0 1.71875,-0.76563 0.4375,-0.76562 0.4375,-2.48437 0,-1.73438 -0.46875,-2.45313 -0.46875,-0.73437 -1.6875,-0.73437 -1.21875,0 -1.6875,0.73437 -0.45312,0.71875 -0.45312,2.45313 0,1.71875 0.4375,2.48437 z m 7.80969,2.29688 v -9.5 h 2.0625 v 1.14062 q 1.60938,-1.04687 3.21875,-1.34375 v 2.0625 q -1.625,0.32813 -2.78125,0.84375 l -0.42187,0.17188 v 6.625 z m 11.8443,-7.73438 h -2.60937 v 4.1875 q 0,1.15625 0.15625,1.53125 0.17187,0.375 0.875,0.375 l 1.5625,-0.0469 0.0937,1.65625 q -1.26563,0.23437 -1.9375,0.23437 -1.60938,0 -2.21875,-0.73437 -0.59375,-0.73438 -0.59375,-2.79688 v -4.40625 h -1.21875 v -1.76562 h 1.21875 v -2.75 h 2.0625 v 2.75 h 2.60937 z m 8.33521,6.03125 0.53125,-0.0625 0.0469,1.53125 q -2.17187,0.4375 -3.84375,0.4375 -2.10937,0 -3.03125,-1.15625 -0.92187,-1.15625 -0.92187,-3.70312 0,-5.04688 4.125,-5.04688 3.98437,0 3.98437,4.34375 l -0.125,1.48438 h -5.89062 q 0.0156,1.17187 0.5,1.73437 0.5,0.54688 1.84375,0.54688 1.35937,0 2.78125,-0.10938 z m -1.14063,-3.76562 q 0,-1.40625 -0.45312,-1.96875 -0.4375,-0.5625 -1.5,-0.5625 -1.0625,0 -1.54688,0.59375 -0.48437,0.57812 -0.5,1.9375 z" />
    </g>
    <g
       inkscape:label="step3-info"
       id="g4892">
      <path
         inkscape:label="line1"
         style="fill:#000000;fill-rule:nonzero"
         inkscape:connector-curvature="0"
         id="path205"
         d="m 837.2451,779.3354 v 4.34375 q 0.0156,0.40625 0.21875,0.60938 0.20312,0.20312 0.625,0.25 l -0.0625,1.57812 q -1.64063,0 -2.53125,-0.70312 -1.51563,0.70312 -3.04688,0.70312 -2.84375,0 -2.84375,-3.01562 0,-1.4375 0.76563,-2.07813 0.78125,-0.65625 2.375,-0.79687 l 2.45312,-0.20313 v -0.6875 q 0,-0.75 -0.34375,-1.04687 -0.32812,-0.3125 -0.96875,-0.3125 -1.21875,0 -3.04687,0.14062 l -0.60938,0.0469 -0.0625,-1.46875 q 2.0625,-0.48438 3.79688,-0.48438 1.75,0 2.51562,0.75 0.76563,0.75 0.76563,2.375 z m -4.25,2.35938 q -1.3125,0.10937 -1.3125,1.42187 0,1.3125 1.15625,1.3125 0.95312,0 2.01562,-0.29687 l 0.34375,-0.125 v -2.51563 z m 10.23999,-5.48438 q 1,0 2.375,0.26563 l 0.46875,0.0937 -0.0781,1.625 q -1.5,-0.14063 -2.21875,-0.14063 -1.45313,0 -1.95313,0.64063 -0.48437,0.64062 -0.48437,2.4375 0,1.78125 0.46875,2.46875 0.48437,0.67187 1.98437,0.67187 l 2.21875,-0.14062 0.0625,1.64062 q -1.92187,0.34375 -2.89062,0.34375 -2.15625,0 -3.04688,-1.15625 -0.875,-1.17187 -0.875,-3.82812 0,-2.67188 0.92188,-3.79688 0.9375,-1.125 3.04687,-1.125 z m 5.19916,1.23438 q 0.98437,-1.23438 3.26562,-1.23438 2.28125,0 3.25,1.23438 0.98438,1.23437 0.98438,3.70312 0,2.46875 -0.95313,3.71875 -0.9375,1.25 -3.28125,1.25 -2.32812,0 -3.28125,-1.25 -0.95312,-1.25 -0.95312,-3.71875 0,-2.46875 0.96875,-3.70312 z m 1.5625,6.17187 q 0.4375,0.76563 1.70312,0.76563 1.28125,0 1.71875,-0.76563 0.4375,-0.76562 0.4375,-2.48437 0,-1.73438 -0.46875,-2.45313 -0.46875,-0.73437 -1.6875,-0.73437 -1.21875,0 -1.6875,0.73437 -0.45312,0.71875 -0.45312,2.45313 0,1.71875 0.4375,2.48437 z m 9.88781,2.29688 h -2.07812 v -9.5 h 2.0625 v 0.59375 q 1.34375,-0.79688 2.46875,-0.79688 1.64062,0 2.40625,0.92188 1.73437,-0.92188 3.4375,-0.92188 1.71875,0 2.42187,1.0625 0.70313,1.04688 0.70313,3.54688 v 5.09375 h -2.0625 v -5.03125 q 0,-1.54688 -0.3125,-2.1875 -0.3125,-0.64063 -1.29688,-0.64063 -0.85937,0 -1.84375,0.375 l -0.32812,0.125 q 0.15625,0.39063 0.15625,2.4375 v 4.92188 h -2.04688 v -4.89063 q 0,-1.6875 -0.3125,-2.32812 -0.29687,-0.64063 -1.32812,-0.64063 -0.95313,0 -1.76563,0.375 l -0.28125,0.10938 z m 13.55585,4.07812 v -13.57812 h 2.0625 v 0.59375 q 1.29688,-0.79688 2.4375,-0.79688 1.89063,0 2.76563,1.15625 0.875,1.14063 0.875,3.84375 0,2.70313 -1,3.8125 -1,1.09375 -3.26563,1.09375 -0.78125,0 -1.79687,-0.17187 v 4.04687 z m 4.14063,-11.9375 q -0.89063,0 -1.78125,0.39063 l -0.28125,0.14062 v 5.59375 q 0.75,0.15625 1.67187,0.15625 1.28125,0 1.78125,-0.73437 0.5,-0.75 0.5,-2.53125 0,-3.01563 -1.89062,-3.01563 z m 12.90899,1.28125 v 4.34375 q 0.0156,0.40625 0.21875,0.60938 0.20313,0.20312 0.625,0.25 l -0.0625,1.57812 q -1.64062,0 -2.53125,-0.70312 -1.51562,0.70312 -3.04687,0.70312 -2.84375,0 -2.84375,-3.01562 0,-1.4375 0.76562,-2.07813 0.78125,-0.65625 2.375,-0.79687 l 2.45313,-0.20313 v -0.6875 q 0,-0.75 -0.34375,-1.04687 -0.32813,-0.3125 -0.96875,-0.3125 -1.21875,0 -3.04688,0.14062 l -0.60937,0.0469 -0.0625,-1.46875 q 2.0625,-0.48438 3.79687,-0.48438 1.75,0 2.51563,0.75 0.76562,0.75 0.76562,2.375 z m -4.25,2.35938 q -1.3125,0.10937 -1.3125,1.42187 0,1.3125 1.15625,1.3125 0.95313,0 2.01563,-0.29687 l 0.34375,-0.125 v -2.51563 z m 8.75562,4.21875 h -2.07813 v -9.5 h 2.0625 v 0.59375 q 1.375,-0.79688 2.60938,-0.79688 1.90625,0 2.59375,1.07813 0.70312,1.0625 0.70312,3.53125 v 5.09375 h -2.0625 v -5.03125 q 0,-1.54688 -0.32812,-2.1875 -0.32813,-0.64063 -1.35938,-0.64063 -0.96875,0 -1.85937,0.375 l -0.28125,0.10938 z m 10.18634,0 h -2.07813 V 772.4604 h 2.07813 v 4.45313 q 1.40625,-0.70313 2.59375,-0.70313 1.90625,0 2.59375,1.07813 0.70312,1.0625 0.70312,3.53125 v 5.09375 h -2.07812 v -5.03125 q 0,-1.54688 -0.32813,-2.1875 -0.3125,-0.64063 -1.35937,-0.64063 -0.90625,0 -1.82813,0.29688 l -0.29687,0.10937 z m 15.1394,-6.57813 v 4.34375 q 0.0156,0.40625 0.21875,0.60938 0.20313,0.20312 0.625,0.25 l -0.0625,1.57812 q -1.64062,0 -2.53125,-0.70312 -1.51562,0.70312 -3.04687,0.70312 -2.84375,0 -2.84375,-3.01562 0,-1.4375 0.76562,-2.07813 0.78125,-0.65625 2.375,-0.79687 l 2.45313,-0.20313 v -0.6875 q 0,-0.75 -0.34375,-1.04687 -0.32813,-0.3125 -0.96875,-0.3125 -1.21875,0 -3.04688,0.14062 l -0.60937,0.0469 -0.0625,-1.46875 q 2.0625,-0.48438 3.79687,-0.48438 1.75,0 2.51563,0.75 0.76562,0.75 0.76562,2.375 z m -4.25,2.35938 q -1.3125,0.10937 -1.3125,1.42187 0,1.3125 1.15625,1.3125 0.95313,0 2.01563,-0.29687 l 0.34375,-0.125 v -2.51563 z m 8.75562,4.21875 h -2.07813 v -9.5 h 2.0625 v 0.59375 q 1.34375,-0.79688 2.46875,-0.79688 1.64063,0 2.40625,0.92188 1.73438,-0.92188 3.4375,-0.92188 1.71875,0 2.42188,1.0625 0.70312,1.04688 0.70312,3.54688 v 5.09375 h -2.0625 v -5.03125 q 0,-1.54688 -0.3125,-2.1875 -0.3125,-0.64063 -1.29687,-0.64063 -0.85938,0 -1.84375,0.375 l -0.32813,0.125 q 0.15625,0.39063 0.15625,2.4375 v 4.92188 h -2.04687 v -4.89063 q 0,-1.6875 -0.3125,-2.32812 -0.29688,-0.64063 -1.32813,-0.64063 -0.95312,0 -1.76562,0.375 l -0.28125,0.10938 z m 20.32141,-1.70313 0.53125,-0.0625 0.0469,1.53125 q -2.17187,0.4375 -3.84375,0.4375 -2.10937,0 -3.03125,-1.15625 -0.92187,-1.15625 -0.92187,-3.70312 0,-5.04688 4.125,-5.04688 3.98437,0 3.98437,4.34375 l -0.125,1.48438 h -5.89062 q 0.0156,1.17187 0.5,1.73437 0.5,0.54688 1.84375,0.54688 1.35937,0 2.78125,-0.10938 z m -1.14063,-3.76562 q 0,-1.40625 -0.45312,-1.96875 -0.4375,-0.5625 -1.5,-0.5625 -1.0625,0 -1.54688,0.59375 -0.48437,0.57812 -0.5,1.9375 z m 5.93048,5.46875 h -2.07812 v -9.5 h 2.0625 v 0.59375 q 1.375,-0.79688 2.60937,-0.79688 1.90625,0 2.59375,1.07813 0.70313,1.0625 0.70313,3.53125 v 5.09375 h -2.0625 v -5.03125 q 0,-1.54688 -0.32813,-2.1875 -0.32812,-0.64063 -1.35937,-0.64063 -0.96875,0 -1.85938,0.375 l -0.28125,0.10938 z m 13.21759,-7.73438 h -2.60937 v 4.1875 q 0,1.15625 0.15625,1.53125 0.17187,0.375 0.875,0.375 l 1.5625,-0.0469 0.0937,1.65625 q -1.26563,0.23437 -1.9375,0.23437 -1.60938,0 -2.21875,-0.73437 -0.59375,-0.73438 -0.59375,-2.79688 v -4.40625 h -1.21875 v -1.76562 h 1.21875 v -2.75 h 2.0625 v 2.75 h 2.60937 z m 2.08521,-0.73437 q 0.98437,-1.23438 3.26562,-1.23438 2.28125,0 3.25,1.23438 0.98438,1.23437 0.98438,3.70312 0,2.46875 -0.95313,3.71875 -0.9375,1.25 -3.28125,1.25 -2.32812,0 -3.28125,-1.25 -0.95312,-1.25 -0.95312,-3.71875 0,-2.46875 0.96875,-3.70312 z m 1.5625,6.17187 q 0.4375,0.76563 1.70312,0.76563 1.28125,0 1.71875,-0.76563 0.4375,-0.76562 0.4375,-2.48437 0,-1.73438 -0.46875,-2.45313 -0.46875,-0.73437 -1.6875,-0.73437 -1.21875,0 -1.6875,0.73437 -0.45312,0.71875 -0.45312,2.45313 0,1.71875 0.4375,2.48437 z m 19.66406,-11.15625 v 13.45313 h -2.04687 v -0.5 q -1.39063,0.70312 -2.54688,0.70312 -1.85937,0 -2.73437,-1.10937 -0.85938,-1.125 -0.85938,-3.76563 0,-2.64062 0.95313,-3.82812 0.96875,-1.20313 3,-1.20313 0.6875,0 2.17187,0.23438 v -3.98438 z m -2.39062,11.48438 0.32812,-0.14063 v -5.625 q -1.14062,-0.1875 -2.10937,-0.1875 -1.92188,0 -1.92188,3.1875 0,1.75 0.4375,2.42188 0.45313,0.67187 1.42188,0.67187 0.96875,0 1.84375,-0.32812 z m 5.23059,-6.5 q 0.98437,-1.23438 3.26562,-1.23438 2.28125,0 3.25,1.23438 0.98438,1.23437 0.98438,3.70312 0,2.46875 -0.95313,3.71875 -0.9375,1.25 -3.28125,1.25 -2.32812,0 -3.28125,-1.25 -0.95312,-1.25 -0.95312,-3.71875 0,-2.46875 0.96875,-3.70312 z m 1.5625,6.17187 q 0.4375,0.76563 1.70312,0.76563 1.28125,0 1.71875,-0.76563 0.4375,-0.76562 0.4375,-2.48437 0,-1.73438 -0.46875,-2.45313 -0.46875,-0.73437 -1.6875,-0.73437 -1.21875,0 -1.6875,0.73437 -0.45312,0.71875 -0.45312,2.45313 0,1.71875 0.4375,2.48437 z" />
      <path
         inkscape:label="line2"
         style="fill:#000000;fill-rule:nonzero"
         inkscape:connector-curvature="0"
         id="path207"
         d="m 877.0856,801.3354 v 4.34375 q 0.0156,0.40625 0.21875,0.60938 0.20312,0.20312 0.625,0.25 l -0.0625,1.57812 q -1.64063,0 -2.53125,-0.70312 -1.51563,0.70312 -3.04688,0.70312 -2.84375,0 -2.84375,-3.01562 0,-1.4375 0.76563,-2.07813 0.78125,-0.65625 2.375,-0.79687 l 2.45312,-0.20313 v -0.6875 q 0,-0.75 -0.34375,-1.04687 -0.32812,-0.3125 -0.96875,-0.3125 -1.21875,0 -3.04687,0.14062 l -0.60938,0.0469 -0.0625,-1.46875 q 2.0625,-0.48438 3.79688,-0.48438 1.75,0 2.51562,0.75 0.76563,0.75 0.76563,2.375 z m -4.25,2.35938 q -1.3125,0.10937 -1.3125,1.42187 0,1.3125 1.15625,1.3125 0.95312,0 2.01562,-0.29687 l 0.34375,-0.125 v -2.51563 z m 5.7868,-5.28125 h 2.17188 l 1.8125,7.73437 h 0.60937 l 1.90625,-7.73437 h 2.10938 l -2.46875,9.5 h -3.6875 z m 17.0821,2.92187 v 4.34375 q 0.0156,0.40625 0.21875,0.60938 0.20312,0.20312 0.625,0.25 l -0.0625,1.57812 q -1.64063,0 -2.53125,-0.70312 -1.51563,0.70312 -3.04688,0.70312 -2.84375,0 -2.84375,-3.01562 0,-1.4375 0.76563,-2.07813 0.78125,-0.65625 2.375,-0.79687 l 2.45312,-0.20313 v -0.6875 q 0,-0.75 -0.34375,-1.04687 -0.32812,-0.3125 -0.96875,-0.3125 -1.21875,0 -3.04687,0.14062 l -0.60938,0.0469 -0.0625,-1.46875 q 2.0625,-0.48438 3.79688,-0.48438 1.75,0 2.51562,0.75 0.76563,0.75 0.76563,2.375 z m -4.25,2.35938 q -1.3125,0.10937 -1.3125,1.42187 0,1.3125 1.15625,1.3125 0.95312,0 2.01562,-0.29687 l 0.34375,-0.125 v -2.51563 z m 8.75561,4.21875 h -2.07812 v -9.5 h 2.0625 v 0.59375 q 1.375,-0.79688 2.60937,-0.79688 1.90625,0 2.59375,1.07813 0.70313,1.0625 0.70313,3.53125 v 5.09375 h -2.0625 v -5.03125 q 0,-1.54688 -0.32813,-2.1875 -0.32812,-0.64063 -1.35937,-0.64063 -0.96875,0 -1.85938,0.375 l -0.28125,0.10938 z m 11.63947,0.79687 q 1.20312,0.0156 1.73437,0.34375 0.53125,0.32813 0.53125,1.29688 0,0.96875 -0.53125,1.45312 -0.51562,0.5 -1.4375,0.5 -0.73437,0 -1.46875,-0.14062 l -0.25,-0.0469 0.0781,-1.23437 q 0.64062,0.0312 1.04687,0.0312 0.78125,0 0.78125,-0.59375 0,-0.28125 -0.1875,-0.39063 -0.17187,-0.10937 -0.59375,-0.10937 h -0.59375 v -1.75 q -1.67187,-0.21875 -2.35937,-1.375 -0.6875,-1.17188 -0.6875,-3.70313 0,-2.53125 0.92187,-3.65625 0.9375,-1.125 3.04688,-1.125 1,0 2.375,0.26563 l 0.46875,0.0937 -0.0781,1.625 q -1.5,-0.14063 -2.21875,-0.14063 -1.45312,0 -1.95312,0.64063 -0.48438,0.64062 -0.48438,2.4375 0,1.78125 0.46875,2.46875 0.48438,0.67187 1.98438,0.67187 l 2.21875,-0.14062 0.0625,1.64062 q -1.90625,0.34375 -2.875,0.34375 z m 5.2304,-9.26562 q 0.98438,-1.23438 3.26563,-1.23438 2.28125,0 3.25,1.23438 0.98437,1.23437 0.98437,3.70312 0,2.46875 -0.95312,3.71875 -0.9375,1.25 -3.28125,1.25 -2.32813,0 -3.28125,-1.25 -0.95313,-1.25 -0.95313,-3.71875 0,-2.46875 0.96875,-3.70312 z m 1.5625,6.17187 q 0.4375,0.76563 1.70313,0.76563 1.28125,0 1.71875,-0.76563 0.4375,-0.76562 0.4375,-2.48437 0,-1.73438 -0.46875,-2.45313 -0.46875,-0.73437 -1.6875,-0.73437 -1.21875,0 -1.6875,0.73437 -0.45313,0.71875 -0.45313,2.45313 0,1.71875 0.4375,2.48437 z m 19.66407,-11.15625 v 13.45313 h -2.04688 v -0.5 q -1.39062,0.70312 -2.54687,0.70312 -1.85938,0 -2.73438,-1.10937 -0.85937,-1.125 -0.85937,-3.76563 0,-2.64062 0.95312,-3.82812 0.96875,-1.20313 3,-1.20313 0.6875,0 2.17188,0.23438 v -3.98438 z m -2.39063,11.48438 0.32813,-0.14063 v -5.625 q -1.14063,-0.1875 -2.10938,-0.1875 -1.92187,0 -1.92187,3.1875 0,1.75 0.4375,2.42188 0.45312,0.67187 1.42187,0.67187 0.96875,0 1.84375,-0.32812 z m 11.74622,-4.60938 v 4.34375 q 0.0156,0.40625 0.21875,0.60938 0.20312,0.20312 0.625,0.25 l -0.0625,1.57812 q -1.64063,0 -2.53119,-0.70312 -1.51563,0.70312 -3.04688,0.70312 -2.84375,0 -2.84375,-3.01562 0,-1.4375 0.76563,-2.07813 0.78125,-0.65625 2.375,-0.79687 l 2.45312,-0.20313 v -0.6875 q 0,-0.75 -0.34375,-1.04687 -0.32812,-0.3125 -0.96875,-0.3125 -1.21875,0 -3.04687,0.14062 l -0.60938,0.0469 -0.0625,-1.46875 q 2.0625,-0.48438 3.79688,-0.48438 1.75,0 2.51556,0.75 0.76563,0.75 0.76563,2.375 z m -4.24994,2.35938 q -1.3125,0.10937 -1.3125,1.42187 0,1.3125 1.15625,1.3125 0.95312,0 2.01562,-0.29687 l 0.34375,-0.125 v -2.51563 z m 13.27118,-3.32813 q -2.23438,-0.29687 -3.25,-0.29687 -1,0 -1.39063,0.23437 -0.39062,0.23438 -0.39062,0.75 0,0.51563 0.42187,0.73438 0.4375,0.20312 2.01563,0.48437 1.59375,0.26563 2.25,0.85938 0.67187,0.57812 0.67187,2.07812 0,1.5 -0.96875,2.20313 -0.95312,0.70312 -2.79687,0.70312 -1.15625,0 -2.92188,-0.3125 l -0.59375,-0.0937 0.0781,-1.73437 q 2.28125,0.29687 3.28125,0.29687 1.01562,0 1.4375,-0.23437 0.4375,-0.25 0.4375,-0.8125 0,-0.57813 -0.42188,-0.79688 -0.40625,-0.21875 -1.95312,-0.46875 -1.54688,-0.26562 -2.26563,-0.8125 -0.71875,-0.54687 -0.71875,-2.01562 0,-1.46875 0.98438,-2.1875 1,-0.71875 2.5625,-0.71875 1.21875,0 2.98437,0.29687 l 0.59375,0.125 z" />
      <path
         inkscape:label="line3"
         style="fill:#000000;fill-rule:nonzero"
         inkscape:connector-curvature="0"
         id="path209"
         d="m 880.6401,816.4604 v 13.45313 h -2.04688 v -0.5 q -1.39062,0.70312 -2.54687,0.70312 -1.85938,0 -2.73438,-1.10937 -0.85937,-1.125 -0.85937,-3.76563 0,-2.64062 0.95312,-3.82812 0.96875,-1.20313 3,-1.20313 0.6875,0 2.17188,0.23438 v -3.98438 z m -2.39063,11.48438 0.32813,-0.14063 v -5.625 q -1.14063,-0.1875 -2.10938,-0.1875 -1.92187,0 -1.92187,3.1875 0,1.75 0.4375,2.42188 0.45312,0.67187 1.42187,0.67187 0.96875,0 1.84375,-0.32812 z m 11.4806,0.26562 0.53125,-0.0625 0.0469,1.53125 q -2.17187,0.4375 -3.84375,0.4375 -2.10937,0 -3.03125,-1.15625 -0.92187,-1.15625 -0.92187,-3.70312 0,-5.04688 4.125,-5.04688 3.98437,0 3.98437,4.34375 l -0.125,1.48438 h -5.89062 q 0.0156,1.17187 0.5,1.73437 0.5,0.54688 1.84375,0.54688 1.35937,0 2.78125,-0.10938 z m -1.14063,-3.76562 q 0,-1.40625 -0.45312,-1.96875 -0.4375,-0.5625 -1.5,-0.5625 -1.0625,0 -1.54688,0.59375 -0.48437,0.57812 -0.5,1.9375 z m 5.93048,5.46875 h -2.07812 v -9.5 h 2.0625 v 0.59375 q 1.34375,-0.79688 2.46875,-0.79688 1.64062,0 2.40625,0.92188 1.73437,-0.92188 3.4375,-0.92188 1.71875,0 2.42187,1.0625 0.70313,1.04688 0.70313,3.54688 v 5.09375 h -2.0625 v -5.03125 q 0,-1.54688 -0.3125,-2.1875 -0.3125,-0.64063 -1.29688,-0.64063 -0.85937,0 -1.84375,0.375 l -0.32812,0.125 q 0.15625,0.39063 0.15625,2.4375 v 4.92188 h -2.04688 v -4.89063 q 0,-1.6875 -0.3125,-2.32812 -0.29687,-0.64063 -1.32812,-0.64063 -0.95313,0 -1.76563,0.375 l -0.28125,0.10938 z m 20.5871,-6.57813 v 4.34375 q 0.0156,0.40625 0.21875,0.60938 0.20312,0.20312 0.625,0.25 l -0.0625,1.57812 q -1.64063,0 -2.53125,-0.70312 -1.51563,0.70312 -3.04688,0.70312 -2.84375,0 -2.84375,-3.01562 0,-1.4375 0.76563,-2.07813 0.78125,-0.65625 2.375,-0.79687 l 2.45312,-0.20313 v -0.6875 q 0,-0.75 -0.34375,-1.04687 -0.32812,-0.3125 -0.96875,-0.3125 -1.21875,0 -3.04687,0.14062 l -0.60938,0.0469 -0.0625,-1.46875 q 2.0625,-0.48438 3.79688,-0.48438 1.75,0 2.51562,0.75 0.76563,0.75 0.76563,2.375 z m -4.25,2.35938 q -1.3125,0.10937 -1.3125,1.42187 0,1.3125 1.15625,1.3125 0.95312,0 2.01562,-0.29687 l 0.34375,-0.125 v -2.51563 z m 8.75561,4.21875 h -2.07812 v -9.5 h 2.0625 v 0.59375 q 1.375,-0.79688 2.60937,-0.79688 1.90625,0 2.59375,1.07813 0.70313,1.0625 0.70313,3.53125 v 5.09375 h -2.0625 v -5.03125 q 0,-1.54688 -0.32813,-2.1875 -0.32812,-0.64063 -1.35937,-0.64063 -0.96875,0 -1.85938,0.375 l -0.28125,0.10938 z m 15.85816,-13.45313 v 13.45313 h -2.04688 v -0.5 q -1.39062,0.70312 -2.54687,0.70312 -1.85938,0 -2.73438,-1.10937 -0.85937,-1.125 -0.85937,-3.76563 0,-2.64062 0.95312,-3.82812 0.96875,-1.20313 3,-1.20313 0.6875,0 2.17188,0.23438 v -3.98438 z m -2.39063,11.48438 0.32813,-0.14063 v -5.625 q -1.14063,-0.1875 -2.10938,-0.1875 -1.92187,0 -1.92187,3.1875 0,1.75 0.4375,2.42188 0.45312,0.67187 1.42187,0.67187 0.96875,0 1.84375,-0.32812 z m 11.74628,-4.60938 v 4.34375 q 0.0156,0.40625 0.21875,0.60938 0.20312,0.20312 0.625,0.25 l -0.0625,1.57812 q -1.64063,0 -2.53125,-0.70312 -1.51563,0.70312 -3.04688,0.70312 -2.84375,0 -2.84375,-3.01562 0,-1.4375 0.76563,-2.07813 0.78125,-0.65625 2.375,-0.79687 l 2.45312,-0.20313 v -0.6875 q 0,-0.75 -0.34375,-1.04687 -0.32812,-0.3125 -0.96875,-0.3125 -1.21875,0 -3.04687,0.14062 l -0.60938,0.0469 -0.0625,-1.46875 q 2.0625,-0.48438 3.79688,-0.48438 1.75,0 2.51562,0.75 0.76563,0.75 0.76563,2.375 z m -4.25,2.35938 q -1.3125,0.10937 -1.3125,1.42187 0,1.3125 1.15625,1.3125 0.95312,0 2.01562,-0.29687 l 0.34375,-0.125 v -2.51563 z m 13.27118,-3.32813 q -2.23438,-0.29687 -3.25,-0.29687 -1,0 -1.39063,0.23437 -0.39062,0.23438 -0.39062,0.75 0,0.51563 0.42187,0.73438 0.4375,0.20312 2.01563,0.48437 1.59375,0.26563 2.25,0.85938 0.67187,0.57812 0.67187,2.07812 0,1.5 -0.96875,2.20313 -0.95312,0.70312 -2.79687,0.70312 -1.15625,0 -2.92188,-0.3125 l -0.59375,-0.0937 0.0781,-1.73437 q 2.28125,0.29687 3.28125,0.29687 1.01562,0 1.4375,-0.23437 0.4375,-0.25 0.4375,-0.8125 0,-0.57813 -0.42188,-0.79688 -0.40625,-0.21875 -1.95312,-0.46875 -1.54688,-0.26562 -2.26563,-0.8125 -0.71875,-0.54687 -0.71875,-2.01562 0,-1.46875 0.98438,-2.1875 1,-0.71875 2.5625,-0.71875 1.21875,0 2.98437,0.29687 l 0.59375,0.125 z" />
    </g>
    <g
       inkscape:label="step4-info"
       id="g4887">
      <path
         inkscape:label="line1"
         style="fill:#000000;fill-rule:nonzero"
         inkscape:connector-curvature="0"
         id="path213"
         d="m 1126.0953,776.2104 q 1,0 2.375,0.26563 l 0.4688,0.0937 -0.078,1.625 q -1.5,-0.14063 -2.2187,-0.14063 -1.4531,0 -1.9531,0.64063 -0.4844,0.64062 -0.4844,2.4375 0,1.78125 0.4687,2.46875 0.4844,0.67187 1.9844,0.67187 l 2.2188,-0.14062 0.062,1.64062 q -1.9219,0.34375 -2.8907,0.34375 -2.1562,0 -3.0468,-1.15625 -0.875,-1.17187 -0.875,-3.82812 0,-2.67188 0.9218,-3.79688 0.9375,-1.125 3.0469,-1.125 z m 5.1992,1.23438 q 0.9844,-1.23438 3.2656,-1.23438 2.2813,0 3.25,1.23438 0.9844,1.23437 0.9844,3.70312 0,2.46875 -0.9531,3.71875 -0.9375,1.25 -3.2813,1.25 -2.3281,0 -3.2812,-1.25 -0.9531,-1.25 -0.9531,-3.71875 0,-2.46875 0.9687,-3.70312 z m 1.5625,6.17187 q 0.4375,0.76563 1.7031,0.76563 1.2813,0 1.7188,-0.76563 0.4375,-0.76562 0.4375,-2.48437 0,-1.73438 -0.4688,-2.45313 -0.4687,-0.73437 -1.6875,-0.73437 -1.2187,0 -1.6875,0.73437 -0.4531,0.71875 -0.4531,2.45313 0,1.71875 0.4375,2.48437 z m 9.8878,2.29688 h -2.0781 v -9.5 h 2.0625 v 0.59375 q 1.3438,-0.79688 2.4688,-0.79688 1.6406,0 2.4062,0.92188 1.7344,-0.92188 3.4375,-0.92188 1.7188,0 2.4219,1.0625 0.7031,1.04688 0.7031,3.54688 v 5.09375 h -2.0625 v -5.03125 q 0,-1.54688 -0.3125,-2.1875 -0.3125,-0.64063 -1.2969,-0.64063 -0.8593,0 -1.8437,0.375 l -0.3281,0.125 q 0.1562,0.39063 0.1562,2.4375 v 4.92188 h -2.0469 v -4.89063 q 0,-1.6875 -0.3125,-2.32812 -0.2968,-0.64063 -1.3281,-0.64063 -0.9531,0 -1.7656,0.375 l -0.2813,0.10938 z m 13.5558,4.07812 v -13.57812 h 2.0625 v 0.59375 q 1.2969,-0.79688 2.4375,-0.79688 1.8906,0 2.7656,1.15625 0.875,1.14063 0.875,3.84375 0,2.70313 -1,3.8125 -1,1.09375 -3.2656,1.09375 -0.7812,0 -1.7969,-0.17187 v 4.04687 z m 4.1406,-11.9375 q -0.8906,0 -1.7812,0.39063 l -0.2813,0.14062 v 5.59375 q 0.75,0.15625 1.6719,0.15625 1.2813,0 1.7813,-0.73437 0.5,-0.75 0.5,-2.53125 0,-3.01563 -1.8907,-3.01563 z m 12.9091,1.28125 v 4.34375 q 0.016,0.40625 0.2188,0.60938 0.2031,0.20312 0.625,0.25 l -0.062,1.57812 q -1.6407,0 -2.5313,-0.70312 -1.5156,0.70312 -3.0469,0.70312 -2.8437,0 -2.8437,-3.01562 0,-1.4375 0.7656,-2.07813 0.7813,-0.65625 2.375,-0.79687 l 2.4531,-0.20313 v -0.6875 q 0,-0.75 -0.3437,-1.04687 -0.3281,-0.3125 -0.9688,-0.3125 -1.2187,0 -3.0468,0.14062 l -0.6094,0.0469 -0.062,-1.46875 q 2.0625,-0.48438 3.7969,-0.48438 1.75,0 2.5156,0.75 0.7656,0.75 0.7656,2.375 z m -4.25,2.35938 q -1.3125,0.10937 -1.3125,1.42187 0,1.3125 1.1563,1.3125 0.9531,0 2.0156,-0.29687 l 0.3437,-0.125 v -2.51563 z m 6.6775,4.21875 v -9.5 h 2.0625 v 1.14062 q 1.6094,-1.04687 3.2187,-1.34375 v 2.0625 q -1.625,0.32813 -2.7812,0.84375 l -0.4219,0.17188 v 6.625 z m 11.8442,-7.73438 h -2.6093 v 4.1875 q 0,1.15625 0.1562,1.53125 0.1719,0.375 0.875,0.375 l 1.5625,-0.0469 0.094,1.65625 q -1.2657,0.23437 -1.9375,0.23437 -1.6094,0 -2.2188,-0.73437 -0.5937,-0.73438 -0.5937,-2.79688 v -4.40625 h -1.2188 v -1.76562 h 1.2188 v -2.75 h 2.0625 v 2.75 h 2.6093 z m 1.5696,7.73438 v -9.5 h 2.0781 v 9.5 z m 0,-11.10938 v -2.1875 h 2.0781 v 2.1875 z m 4.6212,11.10938 V 772.4604 h 2.0625 v 13.45313 z m 6.6731,0 h -2.0781 V 772.4604 h 2.0781 v 4.45313 q 1.4063,-0.70313 2.5938,-0.70313 1.9062,0 2.5937,1.07813 0.7031,1.0625 0.7031,3.53125 v 5.09375 h -2.0781 v -5.03125 q 0,-1.54688 -0.3281,-2.1875 -0.3125,-0.64063 -1.3594,-0.64063 -0.9062,0 -1.8281,0.29688 l -0.2969,0.10937 z m 15.1396,-6.57813 v 4.34375 q 0.016,0.40625 0.2187,0.60938 0.2031,0.20312 0.625,0.25 l -0.062,1.57812 q -1.6406,0 -2.5312,-0.70312 -1.5157,0.70312 -3.0469,0.70312 -2.8438,0 -2.8438,-3.01562 0,-1.4375 0.7657,-2.07813 0.7812,-0.65625 2.375,-0.79687 l 2.4531,-0.20313 v -0.6875 q 0,-0.75 -0.3438,-1.04687 -0.3281,-0.3125 -0.9687,-0.3125 -1.2188,0 -3.0469,0.14062 l -0.6094,0.0469 -0.062,-1.46875 q 2.0625,-0.48438 3.7969,-0.48438 1.75,0 2.5156,0.75 0.7657,0.75 0.7657,2.375 z m -4.25,2.35938 q -1.3125,0.10937 -1.3125,1.42187 0,1.3125 1.1562,1.3125 0.9531,0 2.0156,-0.29687 l 0.3438,-0.125 v -2.51563 z m 8.7554,4.21875 h -2.0781 v -9.5 h 2.0625 v 0.59375 q 1.3438,-0.79688 2.4688,-0.79688 1.6406,0 2.4062,0.92188 1.7344,-0.92188 3.4375,-0.92188 1.7188,0 2.4219,1.0625 0.7031,1.04688 0.7031,3.54688 v 5.09375 h -2.0625 v -5.03125 q 0,-1.54688 -0.3125,-2.1875 -0.3125,-0.64063 -1.2969,-0.64063 -0.8593,0 -1.8437,0.375 l -0.3281,0.125 q 0.1562,0.39063 0.1562,2.4375 v 4.92188 h -2.0469 v -4.89063 q 0,-1.6875 -0.3125,-2.32812 -0.2968,-0.64063 -1.3281,-0.64063 -0.9531,0 -1.7656,0.375 l -0.2813,0.10938 z m 20.3216,-1.70313 0.5312,-0.0625 0.047,1.53125 q -2.1719,0.4375 -3.8437,0.4375 -2.1094,0 -3.0313,-1.15625 -0.9219,-1.15625 -0.9219,-3.70312 0,-5.04688 4.125,-5.04688 3.9844,0 3.9844,4.34375 l -0.125,1.48438 h -5.8906 q 0.016,1.17187 0.5,1.73437 0.5,0.54688 1.8437,0.54688 1.3594,0 2.7813,-0.10938 z m -1.1406,-3.76562 q 0,-1.40625 -0.4532,-1.96875 -0.4375,-0.5625 -1.5,-0.5625 -1.0625,0 -1.5468,0.59375 -0.4844,0.57812 -0.5,1.9375 z m 5.9304,5.46875 h -2.0782 v -9.5 h 2.0625 v 0.59375 q 1.375,-0.79688 2.6094,-0.79688 1.9063,0 2.5938,1.07813 0.7031,1.0625 0.7031,3.53125 v 5.09375 h -2.0625 v -5.03125 q 0,-1.54688 -0.3281,-2.1875 -0.3282,-0.64063 -1.3594,-0.64063 -0.9688,0 -1.8594,0.375 l -0.2812,0.10938 z m 13.2176,-7.73438 h -2.6094 v 4.1875 q 0,1.15625 0.1563,1.53125 0.1719,0.375 0.875,0.375 l 1.5625,-0.0469 0.094,1.65625 q -1.2656,0.23437 -1.9375,0.23437 -1.6093,0 -2.2187,-0.73437 -0.5938,-0.73438 -0.5938,-2.79688 v -4.40625 h -1.2187 v -1.76562 h 1.2187 v -2.75 h 2.0625 v 2.75 h 2.6094 z m 2.0852,-0.73437 q 0.9844,-1.23438 3.2657,-1.23438 2.2812,0 3.25,1.23438 0.9843,1.23437 0.9843,3.70312 0,2.46875 -0.9531,3.71875 -0.9375,1.25 -3.2812,1.25 -2.3282,0 -3.2813,-1.25 -0.9531,-1.25 -0.9531,-3.71875 0,-2.46875 0.9687,-3.70312 z m 1.5625,6.17187 q 0.4375,0.76563 1.7032,0.76563 1.2812,0 1.7187,-0.76563 0.4375,-0.76562 0.4375,-2.48437 0,-1.73438 -0.4687,-2.45313 -0.4688,-0.73437 -1.6875,-0.73437 -1.2188,0 -1.6875,0.73437 -0.4532,0.71875 -0.4532,2.45313 0,1.71875 0.4375,2.48437 z m 19.6641,-11.15625 v 13.45313 h -2.0469 v -0.5 q -1.3906,0.70312 -2.5469,0.70312 -1.8593,0 -2.7343,-1.10937 -0.8594,-1.125 -0.8594,-3.76563 0,-2.64062 0.9531,-3.82812 0.9688,-1.20313 3,-1.20313 0.6875,0 2.1719,0.23438 v -3.98438 z m -2.3906,11.48438 0.3281,-0.14063 v -5.625 q -1.1406,-0.1875 -2.1094,-0.1875 -1.9219,0 -1.9219,3.1875 0,1.75 0.4375,2.42188 0.4532,0.67187 1.4219,0.67187 0.9688,0 1.8438,-0.32812 z m 11.4806,0.26562 0.5312,-0.0625 0.047,1.53125 q -2.1719,0.4375 -3.8438,0.4375 -2.1093,0 -3.0312,-1.15625 -0.9219,-1.15625 -0.9219,-3.70312 0,-5.04688 4.125,-5.04688 3.9844,0 3.9844,4.34375 l -0.125,1.48438 h -5.8906 q 0.016,1.17187 0.5,1.73437 0.5,0.54688 1.8437,0.54688 1.3594,0 2.7813,-0.10938 z m -1.1407,-3.76562 q 0,-1.40625 -0.4531,-1.96875 -0.4375,-0.5625 -1.5,-0.5625 -1.0625,0 -1.5469,0.59375 -0.4843,0.57812 -0.5,1.9375 z" />
      <path
         inkscape:label="line2"
         style="fill:#000000;fill-rule:nonzero"
         inkscape:connector-curvature="0"
         id="path215"
         d="m 1158.9313,807.9135 v -9.5 h 2.0625 v 1.14062 q 1.6094,-1.04687 3.2188,-1.34375 v 2.0625 q -1.625,0.32813 -2.7813,0.84375 l -0.4219,0.17188 v 6.625 z m 13.5005,-1.70313 0.5312,-0.0625 0.047,1.53125 q -2.1719,0.4375 -3.8437,0.4375 -2.1094,0 -3.0313,-1.15625 -0.9219,-1.15625 -0.9219,-3.70312 0,-5.04688 4.125,-5.04688 3.9844,0 3.9844,4.34375 l -0.125,1.48438 h -5.8906 q 0.016,1.17187 0.5,1.73437 0.5,0.54688 1.8437,0.54688 1.3594,0 2.7813,-0.10938 z m -1.1406,-3.76562 q 0,-1.40625 -0.4532,-1.96875 -0.4375,-0.5625 -1.5,-0.5625 -1.0625,0 -1.5468,0.59375 -0.4844,0.57812 -0.5,1.9375 z m 10.4461,-2.07813 q -2.2343,-0.29687 -3.25,-0.29687 -1,0 -1.3906,0.23437 -0.3906,0.23438 -0.3906,0.75 0,0.51563 0.4219,0.73438 0.4375,0.20312 2.0156,0.48437 1.5937,0.26563 2.25,0.85938 0.6719,0.57812 0.6719,2.07812 0,1.5 -0.9688,2.20313 -0.9531,0.70312 -2.7969,0.70312 -1.1562,0 -2.9218,-0.3125 l -0.5938,-0.0937 0.078,-1.73437 q 2.2813,0.29687 3.2813,0.29687 1.0156,0 1.4375,-0.23437 0.4375,-0.25 0.4375,-0.8125 0,-0.57813 -0.4219,-0.79688 -0.4062,-0.21875 -1.9531,-0.46875 -1.5469,-0.26562 -2.2656,-0.8125 -0.7188,-0.54687 -0.7188,-2.01562 0,-1.46875 0.9844,-2.1875 1,-0.71875 2.5625,-0.71875 1.2187,0 2.9844,0.29687 l 0.5937,0.125 z m 7.9217,-1.95312 h 2.0468 v 9.5 h -2.0468 v -0.59375 q -1.3907,0.79687 -2.5625,0.79687 -1.9688,0 -2.6407,-1.04687 -0.6562,-1.0625 -0.6562,-3.70313 v -4.95312 h 2.0781 v 4.98437 q 0,1.70313 0.2813,2.29688 0.2812,0.57812 1.3281,0.57812 1.0312,0 1.875,-0.375 l 0.2969,-0.10937 z m 4.4897,9.5 v -13.45313 h 2.0625 v 13.45313 z m 9.7044,-7.73438 h -2.6094 v 4.1875 q 0,1.15625 0.1562,1.53125 0.1719,0.375 0.875,0.375 l 1.5625,-0.0469 0.094,1.65625 q -1.2656,0.23437 -1.9375,0.23437 -1.6094,0 -2.2188,-0.73437 -0.5937,-0.73438 -0.5937,-2.79688 v -4.40625 h -1.2188 v -1.76562 h 1.2188 v -2.75 h 2.0625 v 2.75 h 2.6094 z m 8.6008,1.15625 v 4.34375 q 0.016,0.40625 0.2187,0.60938 0.2032,0.20312 0.625,0.25 l -0.062,1.57812 q -1.6406,0 -2.5312,-0.70312 -1.5156,0.70312 -3.0469,0.70312 -2.8437,0 -2.8437,-3.01562 0,-1.4375 0.7656,-2.07813 0.7812,-0.65625 2.375,-0.79687 l 2.4531,-0.20313 v -0.6875 q 0,-0.75 -0.3437,-1.04687 -0.3282,-0.3125 -0.9688,-0.3125 -1.2187,0 -3.0469,0.14062 l -0.6093,0.0469 -0.062,-1.46875 q 2.0625,-0.48438 3.7968,-0.48438 1.75,0 2.5157,0.75 0.7656,0.75 0.7656,2.375 z m -4.25,2.35938 q -1.3125,0.10937 -1.3125,1.42187 0,1.3125 1.1562,1.3125 0.9532,0 2.0157,-0.29687 l 0.3437,-0.125 v -2.51563 z m 14.4275,-9.23438 v 13.45313 h -2.0469 v -0.5 q -1.3906,0.70312 -2.5469,0.70312 -1.8594,0 -2.7344,-1.10937 -0.8593,-1.125 -0.8593,-3.76563 0,-2.64062 0.9531,-3.82812 0.9687,-1.20313 3,-1.20313 0.6875,0 2.1719,0.23438 v -3.98438 z m -2.3907,11.48438 0.3282,-0.14063 v -5.625 q -1.1407,-0.1875 -2.1094,-0.1875 -1.9219,0 -1.9219,3.1875 0,1.75 0.4375,2.42188 0.4531,0.67187 1.4219,0.67187 0.9687,0 1.8437,-0.32812 z m 5.2306,-6.5 q 0.9844,-1.23438 3.2657,-1.23438 2.2812,0 3.25,1.23438 0.9843,1.23437 0.9843,3.70312 0,2.46875 -0.9531,3.71875 -0.9375,1.25 -3.2812,1.25 -2.3282,0 -3.2813,-1.25 -0.9531,-1.25 -0.9531,-3.71875 0,-2.46875 0.9687,-3.70312 z m 1.5625,6.17187 q 0.4375,0.76563 1.7032,0.76563 1.2812,0 1.7187,-0.76563 0.4375,-0.76562 0.4375,-2.48437 0,-1.73438 -0.4687,-2.45313 -0.4688,-0.73437 -1.6875,-0.73437 -1.2188,0 -1.6875,0.73437 -0.4532,0.71875 -0.4532,2.45313 0,1.71875 0.4375,2.48437 z m 14.4035,-5.25 q -2.2344,-0.29687 -3.25,-0.29687 -1,0 -1.3906,0.23437 -0.3907,0.23438 -0.3907,0.75 0,0.51563 0.4219,0.73438 0.4375,0.20312 2.0156,0.48437 1.5938,0.26563 2.25,0.85938 0.6719,0.57812 0.6719,2.07812 0,1.5 -0.9687,2.20313 -0.9532,0.70312 -2.7969,0.70312 -1.1563,0 -2.9219,-0.3125 l -0.5937,-0.0937 0.078,-1.73437 q 2.2812,0.29687 3.2812,0.29687 1.0157,0 1.4375,-0.23437 0.4375,-0.25 0.4375,-0.8125 0,-0.57813 -0.4218,-0.79688 -0.4063,-0.21875 -1.9532,-0.46875 -1.5468,-0.26562 -2.2656,-0.8125 -0.7187,-0.54687 -0.7187,-2.01562 0,-1.46875 0.9843,-2.1875 1,-0.71875 2.5625,-0.71875 1.2188,0 2.9844,0.29687 l 0.5938,0.125 z m 13.0261,5.84375 0.5313,-0.0625 0.047,1.53125 q -2.1718,0.4375 -3.8437,0.4375 -2.1094,0 -3.0313,-1.15625 -0.9218,-1.15625 -0.9218,-3.70312 0,-5.04688 4.125,-5.04688 3.9843,0 3.9843,4.34375 l -0.125,1.48438 h -5.8906 q 0.016,1.17187 0.5,1.73437 0.5,0.54688 1.8438,0.54688 1.3593,0 2.7812,-0.10938 z m -1.1406,-3.76562 q 0,-1.40625 -0.4531,-1.96875 -0.4375,-0.5625 -1.5,-0.5625 -1.0625,0 -1.5469,0.59375 -0.4844,0.57812 -0.5,1.9375 z" />
      <path
         inkscape:label="line3"
         style="fill:#000000;fill-rule:nonzero"
         inkscape:connector-curvature="0"
         id="path217"
         d="m 1165.9159,823.3354 v 4.34375 q 0.016,0.40625 0.2188,0.60938 0.2031,0.20312 0.625,0.25 l -0.062,1.57812 q -1.6407,0 -2.5313,-0.70312 -1.5156,0.70312 -3.0469,0.70312 -2.8437,0 -2.8437,-3.01562 0,-1.4375 0.7656,-2.07813 0.7813,-0.65625 2.375,-0.79687 l 2.4531,-0.20313 v -0.6875 q 0,-0.75 -0.3437,-1.04687 -0.3281,-0.3125 -0.9688,-0.3125 -1.2187,0 -3.0468,0.14062 l -0.6094,0.0469 -0.062,-1.46875 q 2.0625,-0.48438 3.7969,-0.48438 1.75,0 2.5156,0.75 0.7656,0.75 0.7656,2.375 z m -4.25,2.35938 q -1.3125,0.10937 -1.3125,1.42187 0,1.3125 1.1563,1.3125 0.9531,0 2.0156,-0.29687 l 0.3437,-0.125 v -2.51563 z m 6.6774,8.29687 v -13.57812 h 2.0625 v 0.59375 q 1.2968,-0.79688 2.4375,-0.79688 1.8906,0 2.7656,1.15625 0.875,1.14063 0.875,3.84375 0,2.70313 -1,3.8125 -1,1.09375 -3.2656,1.09375 -0.7813,0 -1.7969,-0.17187 v 4.04687 z m 4.1406,-11.9375 q -0.8906,0 -1.7813,0.39063 l -0.2812,0.14062 v 5.59375 q 0.75,0.15625 1.6719,0.15625 1.2812,0 1.7812,-0.73437 0.5,-0.75 0.5,-2.53125 0,-3.01563 -1.8906,-3.01563 z m 5.8778,7.85938 v -9.5 h 2.0625 v 1.14062 q 1.6094,-1.04687 3.2188,-1.34375 v 2.0625 q -1.625,0.32813 -2.7813,0.84375 l -0.4219,0.17188 v 6.625 z m 13.5006,-1.70313 0.5313,-0.0625 0.047,1.53125 q -2.1718,0.4375 -3.8437,0.4375 -2.1094,0 -3.0313,-1.15625 -0.9218,-1.15625 -0.9218,-3.70312 0,-5.04688 4.125,-5.04688 3.9843,0 3.9843,4.34375 l -0.125,1.48438 h -5.8906 q 0.016,1.17187 0.5,1.73437 0.5,0.54688 1.8438,0.54688 1.3593,0 2.7812,-0.10938 z m -1.1406,-3.76562 q 0,-1.40625 -0.4531,-1.96875 -0.4375,-0.5625 -1.5,-0.5625 -1.0625,0 -1.5469,0.59375 -0.4844,0.57812 -0.5,1.9375 z m 5.9304,5.46875 h -2.0781 v -9.5 h 2.0625 v 0.59375 q 1.375,-0.79688 2.6094,-0.79688 1.9062,0 2.5937,1.07813 0.7031,1.0625 0.7031,3.53125 v 5.09375 h -2.0625 v -5.03125 q 0,-1.54688 -0.3281,-2.1875 -0.3281,-0.64063 -1.3594,-0.64063 -0.9687,0 -1.8593,0.375 l -0.2813,0.10938 z m 15.8582,-13.45313 v 13.45313 h -2.0469 v -0.5 q -1.3906,0.70312 -2.5469,0.70312 -1.8594,0 -2.7344,-1.10937 -0.8593,-1.125 -0.8593,-3.76563 0,-2.64062 0.9531,-3.82812 0.9687,-1.20313 3,-1.20313 0.6875,0 2.1719,0.23438 v -3.98438 z m -2.3907,11.48438 0.3282,-0.14063 v -5.625 q -1.1407,-0.1875 -2.1094,-0.1875 -1.9219,0 -1.9219,3.1875 0,1.75 0.4375,2.42188 0.4531,0.67187 1.4219,0.67187 0.9687,0 1.8437,-0.32812 z m 4.7151,1.96875 v -9.5 h 2.0781 v 9.5 z m 0,-11.10938 v -2.1875 h 2.0781 v 2.1875 z m 4.0274,3.45313 v -1.84375 h 7.0468 v 1.84375 l -4.5625,5.8125 h 4.5625 v 1.84375 h -7.0468 v -1.84375 l 4.5781,-5.8125 z m 15.9699,1.07812 v 4.34375 q 0.016,0.40625 0.2188,0.60938 0.2031,0.20312 0.625,0.25 l -0.062,1.57812 q -1.6406,0 -2.5313,-0.70312 -1.5156,0.70312 -3.0468,0.70312 -2.8438,0 -2.8438,-3.01562 0,-1.4375 0.7656,-2.07813 0.7813,-0.65625 2.375,-0.79687 l 2.4532,-0.20313 v -0.6875 q 0,-0.75 -0.3438,-1.04687 -0.3281,-0.3125 -0.9687,-0.3125 -1.2188,0 -3.0469,0.14062 l -0.6094,0.0469 -0.062,-1.46875 q 2.0625,-0.48438 3.7969,-0.48438 1.75,0 2.5156,0.75 0.7656,0.75 0.7656,2.375 z m -4.25,2.35938 q -1.3125,0.10937 -1.3125,1.42187 0,1.3125 1.1563,1.3125 0.9531,0 2.0156,-0.29687 l 0.3438,-0.125 v -2.51563 z m 14.4275,-9.23438 v 13.45313 h -2.0468 v -0.5 q -1.3907,0.70312 -2.5469,0.70312 -1.8594,0 -2.7344,-1.10937 -0.8594,-1.125 -0.8594,-3.76563 0,-2.64062 0.9532,-3.82812 0.9687,-1.20313 3,-1.20313 0.6875,0 2.1718,0.23438 v -3.98438 z m -2.3906,11.48438 0.3281,-0.14063 v -5.625 q -1.1406,-0.1875 -2.1093,-0.1875 -1.9219,0 -1.9219,3.1875 0,1.75 0.4375,2.42188 0.4531,0.67187 1.4219,0.67187 0.9687,0 1.8437,-0.32812 z m 5.2306,-6.5 q 0.9844,-1.23438 3.2656,-1.23438 2.2813,0 3.25,1.23438 0.9844,1.23437 0.9844,3.70312 0,2.46875 -0.9531,3.71875 -0.9375,1.25 -3.2813,1.25 -2.3281,0 -3.2812,-1.25 -0.9532,-1.25 -0.9532,-3.71875 0,-2.46875 0.9688,-3.70312 z m 1.5625,6.17187 q 0.4375,0.76563 1.7031,0.76563 1.2813,0 1.7188,-0.76563 0.4375,-0.76562 0.4375,-2.48437 0,-1.73438 -0.4688,-2.45313 -0.4687,-0.73437 -1.6875,-0.73437 -1.2187,0 -1.6875,0.73437 -0.4531,0.71875 -0.4531,2.45313 0,1.71875 0.4375,2.48437 z" />
    </g>
    <g
       inkscape:label="arrow-4"
       id="g4917">
      <path
         inkscape:label="line"
         style="fill-rule:evenodd;stroke:#999999;stroke-width:3;stroke-linecap:butt;stroke-linejoin:round"
         inkscape:connector-curvature="0"
         id="path221"
         d="m 999.41315,889.16534 c 12.49995,0 29.24395,14.67743 24.99985,29.0827 -4.2441,14.40528 -29.47629,28.53839 -56.83066,29.08277 -13.67712,0.27215 -27.88477,-2.85285 -38.67316,-7.60846 -1.34857,-0.59442 -2.64367,-1.21442 -3.87762,-1.85626 -0.61701,-0.32105 -1.21875,-0.64753 -1.8042,-0.97901 -0.29273,-0.16577 -0.58136,-0.33288 -0.86578,-0.50116 l -0.20984,-0.12543" />
      <path
         inkscape:label="tip"
         style="fill:#999999;fill-rule:evenodd;stroke:#999999;stroke-width:3;stroke-linecap:butt"
         inkscape:connector-curvature="0"
         id="path223"
         d="m 925.98645,933.1222 -12.45709,-7.39746 4.78766,13.67407 z" />
    </g>
    <g
       inkscape:label="arrow-1"
       id="g4913">
      <path
         inkscape:label="line"
         style="fill-rule:evenodd;stroke:#000000;stroke-width:3;stroke-linecap:butt;stroke-linejoin:round"
         inkscape:connector-curvature="0"
         id="path227"
         d="m 416,888.0945 101.1181,-0.0802" />
      <path
         inkscape:label="tip"
         style="fill:#000000;fill-rule:evenodd;stroke:#000000;stroke-width:3;stroke-linecap:butt"
         inkscape:connector-curvature="0"
         id="path229"
         d="m 517.1221,892.9695 13.61035,-4.966 -13.61822,-4.9444 z" />
    </g>
    <g
       inkscape:label="arrow-2"
       id="g4909">
      <path
         inkscape:label="line"
         style="fill-rule:evenodd;stroke:#000000;stroke-width:3;stroke-linecap:butt;stroke-linejoin:round"
         inkscape:connector-curvature="0"
         id="path233"
         d="m 698.1192,888 h 106" />
      <path
         inkscape:label="tip"
         style="fill:#000000;fill-rule:evenodd;stroke:#000000;stroke-width:3;stroke-linecap:butt"
         inkscape:connector-curvature="0"
         id="path235"
         d="M 804.1192,892.9552 817.73346,888 804.1192,883.0448 Z" />
    </g>
    <g
       inkscape:label="arrow-3"
       id="g4905">
      <path
         inkscape:label="line"
         style="fill-rule:evenodd;stroke:#000000;stroke-width:3;stroke-linecap:butt;stroke-linejoin:round"
         inkscape:connector-curvature="0"
         id="path239"
         d="M 999.41315,888 H 1105.4131" />
      <path
         inkscape:label="tip"
         d="M 1105.4131,892.9552 1119.0275,888 1105.4131,883.0448 Z"
         id="path241"
         inkscape:connector-curvature="0"
         style="fill:#000000;fill-rule:evenodd;stroke:#000000;stroke-width:3;stroke-linecap:butt" />
    </g>
  </g>
</svg>
